<svg width="260" height="266" viewBox="0 0 260 266" fill="none" xmlns="http://www.w3.org/2000/svg">
<ellipse cx="93.7672" cy="90.0364" rx="14.3404" ry="16.516" fill="#231E15"/>
<ellipse cx="103.222" cy="107.809" rx="14.3404" ry="16.516" fill="#231E15"/>
<ellipse cx="120.994" cy="114.365" rx="14.3404" ry="16.516" fill="#231E15"/>
<ellipse cx="180.105" cy="118.849" rx="14.3404" ry="16.516" fill="#231E15"/>
<ellipse cx="201.024" cy="114.365" rx="14.3404" ry="16.516" fill="#231E15"/>
<ellipse cx="203.535" cy="96.5205" rx="14.3404" ry="16.516" fill="#231E15"/>
<ellipse cx="208.786" cy="75.9287" rx="14.3404" ry="16.516" fill="#231E15"/>
<path d="M201.802 83.4985C201.802 109.693 180.049 130.928 153.216 130.928C126.382 130.928 104.629 109.693 104.629 83.4985C104.629 57.3038 126.382 36.0688 153.216 36.0688C180.049 36.0688 201.802 57.3038 201.802 83.4985Z" fill="#43270D"/>
<path d="M139.334 110.931H167.098V150.925H139.334V110.931Z" fill="#43270D"/>
<path d="M53.7292 257.287C44.4746 190.564 106.943 156.378 139.334 147.626H167.098C199.489 156.378 261.957 190.564 252.703 257.287H53.7292Z" fill="#43270D"/>
<ellipse cx="115.384" cy="19.7621" rx="10.1419" ry="10.8961" fill="#231E15"/>
<ellipse cx="103.86" cy="35.9464" rx="14.2908" ry="15.0446" fill="#231E15"/>
<ellipse cx="91.6431" cy="52.2448" rx="12.2163" ry="12.788" fill="#231E15"/>
<ellipse cx="91.9853" cy="75.5639" rx="15.6367" ry="16.5491" fill="#231E15"/>
<ellipse cx="111.079" cy="61.3162" rx="14.4468" ry="15.3291" fill="#231E15"/>
<ellipse cx="122.068" cy="39.4568" rx="14.4468" ry="15.3291" fill="#231E15"/>
<ellipse cx="129.831" cy="50.4202" rx="14.4468" ry="15.3291" fill="#231E15"/>
<ellipse cx="132.597" cy="19.7621" rx="14.4468" ry="15.3291" fill="#231E15"/>
<ellipse cx="149.7" cy="39.4568" rx="18.1811" ry="15.3291" fill="#231E15"/>
<ellipse cx="156.182" cy="15.3291" rx="14.4468" ry="15.3291" fill="#231E15"/>
<ellipse cx="177.257" cy="19.7621" rx="14.4468" ry="15.3291" fill="#231E15"/>
<ellipse cx="173.246" cy="36.9157" rx="14.4468" ry="15.3291" fill="#231E15"/>
<ellipse cx="191.853" cy="49.7036" rx="14.4468" ry="15.3291" fill="#231E15"/>
<ellipse cx="209.358" cy="67.5738" rx="17.5051" ry="15.3291" fill="#231E15"/>
<ellipse cx="194.232" cy="30.6581" rx="14.4468" ry="15.3291" fill="#231E15"/>
<ellipse cx="208.68" cy="49.7036" rx="14.4468" ry="15.3291" fill="#231E15"/>
<ellipse cx="215.365" cy="103.356" rx="10.7305" ry="12.3932" fill="#231E15"/>
<ellipse cx="220.088" cy="86.4438" rx="10.7305" ry="12.3932" fill="#231E15"/>
<path d="M170.186 192.293C158.454 158.617 113.97 159.729 93.1944 164.494C46.9993 190.546 44.6163 241.536 49.1991 263.775H186.685C186.074 253.979 181.918 225.969 170.186 192.293Z" fill="#C6E0FF"/>
<path d="M146.743 192.293C157.569 158.617 198.617 159.729 217.788 164.494C260.415 190.546 262.614 241.536 258.385 263.775H131.519C132.083 253.979 135.917 225.969 146.743 192.293Z" fill="#C6E0FF"/>
<path d="M54.8926 181.539C58.4165 191.873 65.1418 216.376 63.8519 231.719" stroke="#243E14" stroke-width="2"/>
<path d="M81.4025 188.82C75.9213 198.499 65.0006 220.833 66.2456 230.566" stroke="#333B0B" stroke-width="2"/>
<path d="M65.9448 205.704C69.6574 209.125 76.4611 218.791 73.9759 230.085" stroke="#1F2C17" stroke-width="2"/>
<path d="M49.3442 158.025C58.9286 171.84 76.278 205.856 69.0003 231.399" stroke="#263F08" stroke-width="2"/>
<path d="M59.9119 143.969C58.3357 161.223 57.3581 202.669 66.0573 230.421" stroke="#434827" stroke-width="2"/>
<path d="M20.999 143.017C32.2759 168.247 55.7929 221.619 59.6464 233.273" stroke="#324427" stroke-width="2"/>
<path d="M36.3559 134.616C31.7373 134.53 23.9858 140.32 20.6873 143.227C19.5806 142.521 16.7899 143.217 11.5208 144.399C7.30547 145.345 7.6171 142.132 8.29984 140.407C8.59635 139.635 8.85797 137.354 7.53239 134.407C5.87541 130.723 4.31896 133.124 3.34996 129.521C2.57477 126.639 3.83446 124.039 4.5612 123.099C5.23304 124.82 7.15852 129.102 9.48577 132.463C11.813 135.824 14.7564 136.589 15.9372 136.55C16.3106 135.938 16.0381 133.895 11.9604 130.622C7.88279 127.349 4.30146 119.744 3.0205 116.351C4.68075 113.88 7.77374 109.543 6.86367 111.963C5.95359 114.383 7.08137 117.638 7.75902 118.963C10.1938 122.548 15.2873 129.35 16.1835 127.88C17.3036 126.043 11.5303 111.366 11.3636 111.388C11.197 111.409 17.2319 108.266 22.697 109.938C27.0691 111.276 28.8817 115.471 29.2416 117.401C26.7273 122.466 22.4656 132.497 25.5323 132.105C28.5989 131.712 31.1369 124.273 32.0226 120.603C35.3914 125.31 40.9745 134.703 36.3559 134.616Z" fill="#42572E" stroke="#324427"/>
<path d="M34.2511 142C41.4728 137.011 43.0702 145.615 42.9662 150.541C43.4298 143.57 47.2265 141.47 49.067 141.291C50.6096 141.432 54.1143 142.61 55.7918 146.19C57.8887 150.665 46.9158 161.554 47.5534 158.593C48.191 155.632 46.2046 153.345 45.2433 152.452C44.4743 151.737 42.5638 153.133 41.7046 153.921C43.9565 154.31 48.0174 156.128 46.2453 160.285C44.4732 164.442 34.4087 167.954 29.598 169.19C27.1439 168.544 22.736 165.867 24.7375 160.326C26.7391 154.785 31.3273 154.457 33.3712 154.986C35.2046 154.752 37.6902 153.79 32.9662 151.82C28.2422 149.849 24.0457 154.034 22.5379 156.372C23.4332 153.66 27.0294 146.989 34.2511 142Z" fill="#3C6D00" stroke="#263F08"/>
<path d="M51.4258 127.946C52.9561 120.839 59.4304 126.075 62.4762 129.581C63.6351 126.723 66.4359 120.809 68.3676 120.019C70.7824 119.033 70.2436 120.118 78.6952 123.95C85.4564 127.015 84.1493 138.78 82.6506 144.279C82.6521 144.674 82.3937 144.515 81.3483 140.719C80.3028 136.923 74.6892 134.626 72.013 133.952C71.8605 134.084 71.8777 134.748 73.1661 136.345C74.7766 138.341 83.2146 144.715 84.1196 147.818C84.8436 150.3 82.7081 152.233 81.5498 152.89C81.6299 151.75 81.1494 148.435 78.5867 144.291C76.0239 140.147 73.8043 140.893 73.0149 141.785C76.7404 144.866 83.5297 151.417 80.8832 152.975C78.2367 154.533 75.4885 158.916 74.4452 160.913C74.3528 160.191 73.8777 157.801 72.7165 154.019C71.5553 150.238 61.5828 145.11 56.7418 143.019C54.3322 140.956 49.8956 135.053 51.4258 127.946Z" fill="#75871B" stroke="#434827"/>
<path d="M52.8483 173.5C49.4622 167.157 43.1041 171.923 40.3482 175.099C39.6215 176.039 38.1691 176.868 38.1738 172.667C38.1784 168.465 35.0659 166.91 33.509 166.657C31.918 166.578 27.4568 168.075 22.3405 174.692C15.9451 182.963 21.2959 195.661 21.3095 193.118C21.3203 191.084 26.159 186.005 28.5769 183.719C29.876 183.722 32.187 183.867 31.0382 184.421C29.8893 184.974 25.7765 193.168 23.8637 197.196C28.2281 202.623 37.1529 212.097 37.9374 206.576C38.7219 201.055 48.8457 192.532 53.8095 188.961C54.8999 186.45 56.2343 179.843 52.8483 173.5Z" fill="#4B5F2A" stroke="#243E14"/>
<path d="M53.3399 205.546C54.3731 206.047 56.6306 201.634 57.6302 199.365C60.3726 197.709 66.382 197.449 68.4809 209.661C70.5797 221.872 62.0757 230.044 57.5613 232.604C56.2563 233.326 53.8396 234.146 54.6127 231.653C55.579 228.537 52.011 219.766 52.5143 225.213C52.917 229.571 50.8121 232.592 49.7094 233.558C48.5279 233.56 45.3601 230.62 42.1405 218.843C38.116 204.123 46.4589 201.527 49.3076 199.937C52.1564 198.347 52.0485 204.919 53.3399 205.546Z" fill="#496538" stroke="#1F2C17"/>
<path d="M56.981 232.294C54.8306 232.433 54.2542 233.489 53.9849 234.032C63.7058 237.193 84.6942 230.443 80.5275 230.976C77.1942 231.402 77.8313 229.762 74.3143 230.076C72.5794 229.756 69.098 227.966 66.9306 227.972C64.7632 227.978 63.2949 229.566 62.8318 230.359C61.7775 230.946 59.1314 232.154 56.981 232.294Z" fill="#43270D" stroke="#291710"/>
<path d="M57.4892 258.789L52.4737 239.442L50.9485 238.112L50.4155 233.946C54.1261 234.262 62.8807 234.723 68.214 234.041C73.5473 233.359 81.2373 230.794 84.4155 229.597L84.9485 233.764L83.4737 235.477L83.6559 255.442C81.3936 256.296 75.7776 258.211 71.4117 259.041C67.0458 259.87 60.3109 259.218 57.4892 258.789Z" fill="#CB6843" stroke="#482315"/>
<path d="M85.7863 176.74L101.185 168.673C103.455 167.874 107.843 170.396 105.62 174.204C102.841 178.963 96.4297 181.816 97.3347 184.919C97.6253 185.915 97.8707 186.515 98.0688 186.857C98.2942 186.944 98.4825 187.034 98.6332 187.124C98.5547 187.303 98.3643 187.367 98.0688 186.857C96.1919 186.134 91.7452 185.682 85.0692 188.351C77.5917 191.34 74.6047 185.116 74.046 181.63C73.9471 178.65 76.1568 173.5 85.7863 176.74Z" fill="#43581D"/>
<path d="M85.7863 176.74L101.185 168.673C103.455 167.874 107.843 170.396 105.62 174.204C102.841 178.963 96.4297 181.816 97.3347 184.919C98.0588 187.401 98.502 187.423 98.6332 187.124C97.2275 186.288 92.5467 185.362 85.0692 188.351C77.5917 191.34 74.6047 185.116 74.046 181.63C73.9471 178.65 76.1568 173.5 85.7863 176.74Z" stroke="#333C0B"/>
</svg>
