<svg width="269" height="335" viewBox="0 0 269 335" fill="none" xmlns="http://www.w3.org/2000/svg">
<ellipse cx="58.5141" cy="114.052" rx="18.1654" ry="20.9213" fill="#231E15"/>
<ellipse cx="70.4906" cy="136.565" rx="18.1654" ry="20.9213" fill="#231E15"/>
<ellipse cx="93.0033" cy="144.87" rx="18.1654" ry="20.9213" fill="#231E15"/>
<ellipse cx="167.881" cy="150.55" rx="18.1654" ry="20.9213" fill="#231E15"/>
<ellipse cx="194.381" cy="144.87" rx="18.1654" ry="20.9213" fill="#231E15"/>
<ellipse cx="197.561" cy="122.266" rx="18.1654" ry="20.9213" fill="#231E15"/>
<ellipse cx="204.212" cy="96.1814" rx="18.1654" ry="20.9213" fill="#231E15"/>
<path d="M195.366 105.77C195.366 138.952 167.811 165.851 133.82 165.851C99.8288 165.851 72.2736 138.952 72.2736 105.77C72.2736 72.5886 99.8288 45.6896 133.82 45.6896C167.811 45.6896 195.366 72.5886 195.366 105.77Z" fill="#43270D"/>
<path d="M116.235 140.52H151.404V191.182H116.235V140.52Z" fill="#43270D"/>
<path d="M7.79674 325.914C-3.92634 241.393 75.2044 198.089 116.235 187.002H151.404C192.435 198.089 271.566 241.393 259.843 325.914H7.79674Z" fill="#43270D"/>
<ellipse cx="85.8978" cy="25.0332" rx="12.8471" ry="13.8024" fill="#231E15"/>
<ellipse cx="71.2979" cy="45.5345" rx="18.1026" ry="19.0576" fill="#231E15"/>
<ellipse cx="55.8234" cy="66.1802" rx="15.4748" ry="16.1989" fill="#231E15"/>
<ellipse cx="56.2577" cy="95.7193" rx="19.8075" ry="20.9633" fill="#231E15"/>
<ellipse cx="80.4438" cy="77.6714" rx="18.3003" ry="19.4178" fill="#231E15"/>
<ellipse cx="94.3657" cy="49.9811" rx="18.3003" ry="19.4178" fill="#231E15"/>
<ellipse cx="104.198" cy="63.8689" rx="18.3003" ry="19.4178" fill="#231E15"/>
<ellipse cx="107.702" cy="25.0333" rx="18.3003" ry="19.4178" fill="#231E15"/>
<ellipse cx="129.367" cy="49.9811" rx="23.0306" ry="19.4178" fill="#231E15"/>
<ellipse cx="137.579" cy="19.4178" rx="18.3003" ry="19.4178" fill="#231E15"/>
<ellipse cx="164.274" cy="25.0333" rx="18.3003" ry="19.4178" fill="#231E15"/>
<ellipse cx="159.193" cy="46.7623" rx="18.3003" ry="19.4178" fill="#231E15"/>
<ellipse cx="182.763" cy="62.9613" rx="18.3003" ry="19.4178" fill="#231E15"/>
<ellipse cx="204.937" cy="85.598" rx="22.1742" ry="19.4178" fill="#231E15"/>
<ellipse cx="185.776" cy="38.8357" rx="18.3003" ry="19.4178" fill="#231E15"/>
<ellipse cx="204.078" cy="62.9613" rx="18.3003" ry="19.4178" fill="#231E15"/>
<ellipse cx="212.546" cy="130.925" rx="13.5927" ry="15.6989" fill="#231E15"/>
<ellipse cx="218.528" cy="109.501" rx="13.5927" ry="15.6989" fill="#231E15"/>
<path d="M155.316 243.584C140.455 200.925 84.1051 202.334 57.788 208.371C-0.728873 241.37 -3.74754 305.961 2.05773 334.132H176.215C175.441 321.724 170.178 286.242 155.316 243.584Z" fill="#C6E0FF"/>
<path d="M125.619 243.584C139.333 200.925 191.33 202.334 215.614 208.371C269.611 241.37 272.397 305.961 267.04 334.132H106.334C107.049 321.724 111.905 286.242 125.619 243.584Z" fill="#C6E0FF"/>
</svg>
