<svg width="240" height="212" viewBox="0 0 240 212" fill="none" xmlns="http://www.w3.org/2000/svg">
<path d="M65.8438 207.5C50.0103 198.333 15.3433 167.2 3.34332 116C-2.31911 91.8402 2.92884 69.4766 12.1528 51C40.5104 56.6667 138.844 66.5 228.035 51C237.259 69.4766 242.507 91.8402 236.844 116C224.844 167.2 190.177 198.333 174.344 207.5C174.344 207.5 138.822 211.441 118.844 211.5C98.0872 211.561 65.8438 207.5 65.8438 207.5Z" fill="#A3CFE2"/>
<path d="M11.5 51C33.9932 43.3715 139.091 32.6917 228 51C139.587 71.27 39.6104 58.4105 11.5 51Z" fill="#96BCCD" stroke="#7B9CAA"/>
<path d="M47.9996 6.49995C51.5992 15.3 182.5 18.4999 191.5 6.49994M47.9996 6.49995C111.999 -3.90005 171.5 2.1666 191.5 6.49994M47.9996 6.49995C37.437 14.5099 22.1327 30.3204 11.809 51C2.58509 69.4766 -2.66286 91.8402 2.99957 116C14.9996 167.2 49.6665 198.333 65.5 207.5C65.5 207.5 97.7434 211.561 118.5 211.5C138.478 211.441 174 207.5 174 207.5C189.833 198.333 224.5 167.2 236.5 116C242.163 91.8402 236.915 69.4766 227.691 51C217.367 30.3204 202.063 14.5099 191.5 6.49994" stroke="black"/>
<path d="M128.011 124.322C138.875 120.692 159.486 126.839 168.433 130.367C164.169 138.726 151.633 155.59 135.598 156.176C133.921 156.237 132.237 156.21 130.56 156.108C127.328 160.202 119.429 168.147 113.686 167.18C106.507 165.97 123.016 160.63 120.332 154.627C116.026 153.67 111.952 152.371 108.354 150.993C104.323 150.94 100.433 165.643 98.1085 158.356C96.2493 152.527 98.3721 148.432 99.666 147.114C98.5028 146.509 97.4937 145.941 96.6637 145.437C94.4385 148.034 88.1006 154.344 80.5502 158.811C72.9999 163.277 69.2074 177.353 68.255 183.832C67.7919 179.691 66.9972 169.886 67.5229 163.789C68.0486 157.693 70.7539 152.192 72.0408 150.203C69.0594 150.536 61.7602 150.95 56.4146 149.938C51.069 148.926 49.4795 155.409 49.353 158.778C47.7316 156.276 45.4812 149.35 49.4512 141.661C53.4213 133.972 83.0553 136.226 97.3761 138.314C98.2846 137.81 99.4077 137.203 100.698 136.523C98.9271 135.685 96.246 132.704 99.6877 127.49C103.129 122.275 101.963 117.844 100.95 116.28C103.103 116.039 108.238 115.767 111.551 116.604C114.865 117.44 121.004 123.146 123.659 125.894C125.147 125.321 126.606 124.792 128.011 124.322Z" fill="#EA6D10"/>
<path d="M123.659 125.894C125.147 125.321 126.606 124.792 128.011 124.322C138.875 120.692 159.486 126.839 168.433 130.367C164.169 138.726 151.633 155.59 135.598 156.176C133.921 156.237 132.237 156.21 130.56 156.108M123.659 125.894C121.004 123.146 114.865 117.44 111.551 116.604C108.238 115.767 103.103 116.039 100.95 116.28C101.963 117.844 103.129 122.275 99.6877 127.49C96.246 132.704 98.9271 135.685 100.698 136.523M123.659 125.894C115.482 129.042 106.437 133.499 100.698 136.523M100.698 136.523C99.4077 137.203 98.2847 137.81 97.3761 138.314C83.0553 136.226 53.4213 133.972 49.4512 141.661C45.4812 149.35 47.7316 156.276 49.353 158.778C49.4795 155.409 51.069 148.926 56.4146 149.938C61.7602 150.95 69.0594 150.536 72.0408 150.203C70.7539 152.192 68.0486 157.693 67.5229 163.789C66.9972 169.886 67.7919 179.691 68.255 183.832C69.2074 177.353 72.9999 163.277 80.5502 158.811C88.1006 154.344 94.4385 148.034 96.6637 145.437C97.4937 145.941 98.5028 146.509 99.666 147.114M99.666 147.114C98.3721 148.432 96.2493 152.527 98.1085 158.356C100.433 165.643 104.323 150.94 108.354 150.993M99.666 147.114C104.493 149.624 111.975 152.77 120.332 154.627M130.56 156.108C127.328 160.202 119.429 168.147 113.686 167.18C106.507 165.97 123.016 160.63 120.332 154.627M130.56 156.108C127.087 155.896 123.641 155.363 120.332 154.627" stroke="#9C4C10"/>
<path d="M155.955 131.259C153.141 133.083 149.102 137.459 155.465 140.37" stroke="#984101"/>
<circle cx="157.007" cy="136.173" r="2.5" transform="rotate(-6.38116 157.007 136.173)" fill="black"/>
<path d="M202.5 94C202.5 100.314 196.942 105.5 190 105.5C183.058 105.5 177.5 100.314 177.5 94C177.5 87.6857 183.058 82.5 190 82.5C196.942 82.5 202.5 87.6857 202.5 94Z" stroke="#F8F8F8"/>
<path d="M172.5 109.5C172.5 112.779 169.625 115.5 166 115.5C162.375 115.5 159.5 112.779 159.5 109.5C159.5 106.221 162.375 103.5 166 103.5C169.625 103.5 172.5 106.221 172.5 109.5Z" stroke="#F8F8F8"/>
<path d="M171.5 78C171.5 82.0884 167.751 85.5 163 85.5C158.249 85.5 154.5 82.0884 154.5 78C154.5 73.9116 158.249 70.5 163 70.5C167.751 70.5 171.5 73.9116 171.5 78Z" stroke="#F8F8F8"/>
<path d="M193.5 66C193.5 67.8793 191.766 69.5 189.5 69.5C187.234 69.5 185.5 67.8793 185.5 66C185.5 64.1207 187.234 62.5 189.5 62.5C191.766 62.5 193.5 64.1207 193.5 66Z" stroke="#F8F8F8"/>
<path d="M185.5 123C185.5 124.879 183.766 126.5 181.5 126.5C179.234 126.5 177.5 124.879 177.5 123C177.5 121.121 179.234 119.5 181.5 119.5C183.766 119.5 185.5 121.121 185.5 123Z" stroke="#F8F8F8"/>
</svg>
