<svg width="1410" height="476" viewBox="0 0 1410 476" fill="none" xmlns="http://www.w3.org/2000/svg">
<path d="M1167.39 222.038C1167.39 260.166 1135.65 291.075 1096.5 291.075C1057.35 291.075 1025.61 260.166 1025.61 222.038C1025.61 183.909 1057.35 153 1096.5 153C1135.65 153 1167.39 183.909 1167.39 222.038Z" fill="#FAE5CC"/>
<path d="M1076.25 261.968H1116.75V320.182H1076.25V261.968Z" fill="#FAE5CC"/>
<path d="M951.35 475C937.847 377.879 1028.99 328.119 1076.25 315.38H1116.75C1164.01 328.119 1255.15 377.879 1241.65 475H951.35Z" fill="#FAE5CC"/>
<path d="M1068.9 191.973C1044.37 190.666 1034.4 224.113 1032.48 241C1027.05 228.743 1022.13 198.183 1045.9 173.997C1069.67 149.811 1109.47 151.39 1126.4 155.203C1137.26 155.203 1153.81 160.27 1133.11 180.534C1107.24 205.864 1099.57 193.608 1068.9 191.973Z" fill="#C4C4C4"/>
<path d="M1166.88 233.251C1176.85 196.494 1149.02 161.823 1139.18 161.387C1121.18 150.481 1107.75 167.587 1124.97 188.834C1167.54 183.237 1164.72 241.193 1166.88 233.251Z" fill="#C4C4C4"/>
<path d="M1144.37 325C1144.37 325 1118.57 356.364 1048.63 325C950.85 367.545 943.155 442.727 951.53 475H1241.47C1249.85 442.727 1242.15 367.545 1144.37 325Z" fill="#00272B"/>
<path d="M226.913 334.047C200.764 158.455 267.657 135.684 304.372 146.248C396.224 115.56 395.289 258.661 383.339 334.047C342.092 407.21 253.062 509.638 226.913 334.047Z" fill="#241401" stroke="#241401"/>
<path d="M376.991 223.609C376.991 261.5 345.507 292.218 306.669 292.218C267.832 292.218 236.348 261.5 236.348 223.609C236.348 185.717 267.832 155 306.669 155C345.507 155 376.991 185.717 376.991 223.609Z" fill="#E0C69F"/>
<path d="M286.577 263.291H326.761V321.144H286.577V263.291Z" fill="#E0C69F"/>
<path d="M162.34 475C148.93 378.865 239.449 329.61 286.385 317H326.615C373.551 329.61 464.07 378.865 450.66 475H162.34Z" fill="#E0C69F"/>
<path d="M376.374 342.659C327.584 380.405 263.704 358.387 237.862 342.659C179.149 319.684 154.824 421.98 150 476H163.438H457C450.453 415.826 425.163 304.914 376.374 342.659Z" fill="#254E70"/>
<path d="M237.495 235.981C266.646 237.164 303.311 182.487 318 155H292.154L261.646 166.833C241.449 189.389 208.344 234.798 237.495 235.981Z" fill="#241401"/>
<path d="M378.594 217C338.217 214.023 312.041 185.496 304 171.605V153H341.482C362.76 174.333 399.97 217 378.594 217Z" fill="#241401"/>
<ellipse cx="627.514" cy="253.052" rx="18.1654" ry="20.9213" fill="#231E15"/>
<ellipse cx="639.491" cy="275.565" rx="18.1654" ry="20.9213" fill="#231E15"/>
<ellipse cx="662.003" cy="283.87" rx="18.1654" ry="20.9213" fill="#231E15"/>
<ellipse cx="736.881" cy="289.55" rx="18.1654" ry="20.9213" fill="#231E15"/>
<ellipse cx="763.381" cy="283.87" rx="18.1654" ry="20.9213" fill="#231E15"/>
<ellipse cx="766.561" cy="261.266" rx="18.1654" ry="20.9213" fill="#231E15"/>
<ellipse cx="773.212" cy="235.181" rx="18.1654" ry="20.9213" fill="#231E15"/>
<path d="M764.366 244.77C764.366 277.952 736.811 304.851 702.82 304.851C668.829 304.851 641.274 277.952 641.274 244.77C641.274 211.589 668.829 184.69 702.82 184.69C736.811 184.69 764.366 211.589 764.366 244.77Z" fill="#43270D"/>
<path d="M685.235 279.52H720.404V330.182H685.235V279.52Z" fill="#43270D"/>
<path d="M576.797 464.914C565.074 380.393 644.204 337.089 685.235 326.002H720.404C761.435 337.089 840.566 380.393 828.843 464.914H576.797Z" fill="#43270D"/>
<ellipse cx="654.898" cy="164.033" rx="12.8471" ry="13.8024" fill="#231E15"/>
<ellipse cx="640.298" cy="184.535" rx="18.1026" ry="19.0576" fill="#231E15"/>
<ellipse cx="624.823" cy="205.18" rx="15.4748" ry="16.1989" fill="#231E15"/>
<ellipse cx="625.258" cy="234.719" rx="19.8075" ry="20.9633" fill="#231E15"/>
<ellipse cx="649.444" cy="216.671" rx="18.3003" ry="19.4178" fill="#231E15"/>
<ellipse cx="663.366" cy="188.981" rx="18.3003" ry="19.4178" fill="#231E15"/>
<ellipse cx="673.198" cy="202.869" rx="18.3003" ry="19.4178" fill="#231E15"/>
<ellipse cx="676.702" cy="164.033" rx="18.3003" ry="19.4178" fill="#231E15"/>
<ellipse cx="698.367" cy="188.981" rx="23.0306" ry="19.4178" fill="#231E15"/>
<ellipse cx="706.579" cy="158.418" rx="18.3003" ry="19.4178" fill="#231E15"/>
<ellipse cx="733.274" cy="164.033" rx="18.3003" ry="19.4178" fill="#231E15"/>
<ellipse cx="728.193" cy="185.762" rx="18.3003" ry="19.4178" fill="#231E15"/>
<ellipse cx="751.763" cy="201.961" rx="18.3003" ry="19.4178" fill="#231E15"/>
<ellipse cx="773.937" cy="224.598" rx="22.1742" ry="19.4178" fill="#231E15"/>
<ellipse cx="754.776" cy="177.836" rx="18.3003" ry="19.4178" fill="#231E15"/>
<ellipse cx="773.078" cy="201.961" rx="18.3003" ry="19.4178" fill="#231E15"/>
<ellipse cx="781.546" cy="269.925" rx="13.5927" ry="15.6989" fill="#231E15"/>
<ellipse cx="787.528" cy="248.501" rx="13.5927" ry="15.6989" fill="#231E15"/>
<path d="M724.316 382.584C709.455 339.925 653.105 341.334 626.788 347.371C568.271 380.37 565.252 444.961 571.058 473.132H745.215C744.441 460.724 739.178 425.242 724.316 382.584Z" fill="#C6E0FF"/>
<path d="M694.619 382.584C708.333 339.925 760.33 341.334 784.614 347.371C838.611 380.37 841.397 444.961 836.04 473.132H675.334C676.049 460.724 680.905 425.242 694.619 382.584Z" fill="#C6E0FF"/>
<path d="M160.129 308.735C160.837 310.972 160.905 313.233 160.33 315.519C159.784 317.75 158.565 319.837 156.674 321.779C154.811 323.667 152.353 325.162 149.3 326.263L150.865 331.205L146.96 332.442L145.376 327.439C140.948 328.438 137.065 328.259 133.725 326.9C130.373 325.5 128.01 322.914 126.636 319.142L137.74 315.625C138.757 317.988 140.433 319.18 142.767 319.202L139.714 309.562C136.283 309.753 133.49 309.765 131.333 309.598C129.217 309.418 127.177 308.699 125.212 307.442C123.248 306.184 121.795 304.071 120.855 301.102C119.682 297.4 120.104 293.999 122.121 290.899C124.178 287.786 127.318 285.404 131.539 283.754L129.974 278.812L133.878 277.575L135.444 282.517C139.818 281.49 143.587 281.661 146.751 283.031C149.915 284.401 152.245 286.952 153.74 290.685L142.575 294.222C141.635 292.103 140.147 291.008 138.111 290.937L141.106 300.394C144.778 300.26 147.646 300.269 149.708 300.421C151.77 300.574 153.784 301.279 155.749 302.536C157.741 303.74 159.201 305.806 160.129 308.735ZM131.743 297.116C132.065 298.133 132.641 298.89 133.47 299.388C134.34 299.874 135.448 300.194 136.795 300.349L134.109 291.868C133.035 292.432 132.282 293.163 131.85 294.061C131.405 294.918 131.37 295.936 131.743 297.116ZM146.73 318.148C147.885 317.558 148.687 316.768 149.133 315.776C149.621 314.771 149.684 313.699 149.323 312.56C148.988 311.503 148.372 310.758 147.475 310.326C146.605 309.841 145.442 309.56 143.985 309.484L146.73 318.148Z" fill="#4D9951"/>
<path d="M911.129 356.735C911.837 358.972 911.905 361.233 911.33 363.519C910.784 365.75 909.565 367.837 907.674 369.779C905.811 371.667 903.353 373.162 900.3 374.263L901.865 379.205L897.96 380.442L896.376 375.439C891.948 376.438 888.065 376.259 884.725 374.9C881.373 373.5 879.01 370.914 877.636 367.142L888.74 363.625C889.757 365.988 891.433 367.18 893.767 367.202L890.714 357.562C887.283 357.753 884.49 357.765 882.333 357.598C880.217 357.418 878.177 356.699 876.212 355.442C874.248 354.184 872.795 352.071 871.855 349.102C870.682 345.4 871.104 341.999 873.121 338.899C875.178 335.786 878.318 333.404 882.539 331.754L880.974 326.812L884.878 325.575L886.444 330.517C890.818 329.49 894.587 329.661 897.751 331.031C900.915 332.401 903.245 334.952 904.74 338.685L893.575 342.222C892.635 340.103 891.147 339.008 889.111 338.937L892.106 348.394C895.778 348.26 898.646 348.269 900.708 348.421C902.77 348.574 904.784 349.279 906.749 350.536C908.741 351.74 910.201 353.806 911.129 356.735ZM882.743 345.116C883.065 346.133 883.641 346.89 884.47 347.388C885.34 347.874 886.448 348.194 887.795 348.349L885.109 339.868C884.035 340.432 883.282 341.163 882.85 342.061C882.405 342.918 882.37 343.936 882.743 345.116ZM897.73 366.148C898.885 365.558 899.687 364.768 900.133 363.776C900.621 362.771 900.684 361.699 900.323 360.56C899.988 359.503 899.372 358.758 898.475 358.326C897.605 357.841 896.442 357.56 894.985 357.484L897.73 366.148Z" fill="#4D9951"/>
<path d="M1014.13 74.735C1014.84 76.9721 1014.9 79.2334 1014.33 81.5187C1013.78 83.7505 1012.57 85.8372 1010.67 87.779C1008.81 89.6671 1006.35 91.1618 1003.3 92.263L1004.87 97.205L1000.96 98.4418L999.376 93.4388C994.948 94.4383 991.065 94.2586 987.725 92.8996C984.373 91.4998 982.01 88.914 980.636 85.1421L991.74 81.6249C992.757 83.9881 994.433 85.1805 996.767 85.2021L993.714 75.5621C990.283 75.7535 987.49 75.7655 985.333 75.5982C983.217 75.418 981.177 74.6992 979.212 73.4418C977.248 72.1843 975.795 70.071 974.855 67.1017C973.682 63.4003 974.104 59.9994 976.121 56.8991C978.178 53.7859 981.318 51.4041 985.539 49.7537L983.974 44.8117L987.878 43.5749L989.444 48.5169C993.818 47.4896 997.587 47.6608 1000.75 49.0307C1003.91 50.4006 1006.24 52.9522 1007.74 56.6855L996.575 60.222C995.635 58.1028 994.147 57.0077 992.111 56.9367L995.106 66.3936C998.778 66.2598 1001.65 66.2691 1003.71 66.4215C1005.77 66.5739 1007.78 67.2788 1009.75 68.5363C1011.74 69.7401 1013.2 71.8064 1014.13 74.735ZM985.743 63.1157C986.065 64.1326 986.641 64.8902 987.47 65.3884C988.34 65.8737 989.448 66.194 990.795 66.3491L988.109 57.8684C987.035 58.4325 986.282 59.1634 985.85 60.061C985.405 60.9179 985.37 61.9362 985.743 63.1157ZM1000.73 84.1483C1001.89 83.5584 1002.69 82.7675 1003.13 81.7757C1003.62 80.771 1003.68 79.6992 1003.32 78.5603C1002.99 77.5027 1002.37 76.758 1001.47 76.3263C1000.6 75.8409 999.442 75.5603 997.985 75.4845L1000.73 84.1483Z" fill="#4D9951"/>
<path d="M1271.13 252.735C1271.84 254.972 1271.9 257.233 1271.33 259.519C1270.78 261.75 1269.57 263.837 1267.67 265.779C1265.81 267.667 1263.35 269.162 1260.3 270.263L1261.87 275.205L1257.96 276.442L1256.38 271.439C1251.95 272.438 1248.06 272.259 1244.73 270.9C1241.37 269.5 1239.01 266.914 1237.64 263.142L1248.74 259.625C1249.76 261.988 1251.43 263.18 1253.77 263.202L1250.71 253.562C1247.28 253.753 1244.49 253.765 1242.33 253.598C1240.22 253.418 1238.18 252.699 1236.21 251.442C1234.25 250.184 1232.8 248.071 1231.85 245.102C1230.68 241.4 1231.1 237.999 1233.12 234.899C1235.18 231.786 1238.32 229.404 1242.54 227.754L1240.97 222.812L1244.88 221.575L1246.44 226.517C1250.82 225.49 1254.59 225.661 1257.75 227.031C1260.91 228.401 1263.24 230.952 1264.74 234.685L1253.58 238.222C1252.64 236.103 1251.15 235.008 1249.11 234.937L1252.11 244.394C1255.78 244.26 1258.65 244.269 1260.71 244.421C1262.77 244.574 1264.78 245.279 1266.75 246.536C1268.74 247.74 1270.2 249.806 1271.13 252.735ZM1242.74 241.116C1243.07 242.133 1243.64 242.89 1244.47 243.388C1245.34 243.874 1246.45 244.194 1247.8 244.349L1245.11 235.868C1244.03 236.432 1243.28 237.163 1242.85 238.061C1242.41 238.918 1242.37 239.936 1242.74 241.116ZM1257.73 262.148C1258.89 261.558 1259.69 260.768 1260.13 259.776C1260.62 258.771 1260.68 257.699 1260.32 256.56C1259.99 255.503 1259.37 254.758 1258.47 254.326C1257.6 253.841 1256.44 253.56 1254.99 253.484L1257.73 262.148Z" fill="#4D9951"/>
<path d="M505.129 232.735C505.837 234.972 505.905 237.233 505.33 239.519C504.784 241.75 503.565 243.837 501.674 245.779C499.811 247.667 497.353 249.162 494.3 250.263L495.865 255.205L491.96 256.442L490.376 251.439C485.948 252.438 482.065 252.259 478.725 250.9C475.373 249.5 473.01 246.914 471.636 243.142L482.74 239.625C483.757 241.988 485.433 243.18 487.767 243.202L484.714 233.562C481.283 233.753 478.49 233.765 476.333 233.598C474.217 233.418 472.177 232.699 470.212 231.442C468.248 230.184 466.795 228.071 465.855 225.102C464.682 221.4 465.104 217.999 467.121 214.899C469.178 211.786 472.318 209.404 476.539 207.754L474.974 202.812L478.878 201.575L480.444 206.517C484.818 205.49 488.587 205.661 491.751 207.031C494.915 208.401 497.245 210.952 498.74 214.685L487.575 218.222C486.635 216.103 485.147 215.008 483.111 214.937L486.106 224.394C489.778 224.26 492.646 224.269 494.708 224.421C496.77 224.574 498.784 225.279 500.749 226.536C502.741 227.74 504.201 229.806 505.129 232.735ZM476.743 221.116C477.065 222.133 477.641 222.89 478.47 223.388C479.34 223.874 480.448 224.194 481.795 224.349L479.109 215.868C478.035 216.432 477.282 217.163 476.85 218.061C476.405 218.918 476.37 219.936 476.743 221.116ZM491.73 242.148C492.885 241.558 493.687 240.768 494.133 239.776C494.621 238.771 494.684 237.699 494.323 236.56C493.988 235.503 493.372 234.758 492.475 234.326C491.605 233.841 490.442 233.56 488.985 233.484L491.73 242.148Z" fill="#4D9951"/>
<path d="M291.129 56.735C291.837 58.9721 291.905 61.2334 291.33 63.5187C290.784 65.7505 289.565 67.8372 287.674 69.779C285.811 71.6671 283.353 73.1618 280.3 74.263L281.865 79.205L277.96 80.4418L276.376 75.4388C271.948 76.4383 268.065 76.2586 264.725 74.8996C261.373 73.4998 259.01 70.914 257.636 67.1421L268.74 63.6249C269.757 65.9881 271.433 67.1805 273.767 67.2021L270.714 57.5621C267.283 57.7535 264.49 57.7655 262.333 57.5982C260.217 57.418 258.177 56.6992 256.212 55.4418C254.248 54.1843 252.795 52.071 251.855 49.1017C250.682 45.4003 251.104 41.9994 253.121 38.8991C255.178 35.7859 258.318 33.4041 262.539 31.7537L260.974 26.8117L264.878 25.5749L266.444 30.5169C270.818 29.4896 274.587 29.6608 277.751 31.0307C280.915 32.4006 283.245 34.9522 284.74 38.6855L273.575 42.222C272.635 40.1028 271.147 39.0077 269.111 38.9367L272.106 48.3936C275.778 48.2598 278.646 48.2691 280.708 48.4215C282.77 48.5739 284.784 49.2788 286.749 50.5363C288.741 51.7401 290.201 53.8064 291.129 56.735ZM262.743 45.1157C263.065 46.1326 263.641 46.8902 264.47 47.3884C265.34 47.8737 266.448 48.194 267.795 48.3491L265.109 39.8684C264.035 40.4325 263.282 41.1634 262.85 42.061C262.405 42.9179 262.37 43.9362 262.743 45.1157ZM277.73 66.1483C278.885 65.5584 279.687 64.7675 280.133 63.7757C280.621 62.771 280.684 61.6992 280.323 60.5603C279.988 59.5027 279.372 58.758 278.475 58.3263C277.605 57.8409 276.442 57.5603 274.985 57.4845L277.73 66.1483Z" fill="#4D9951"/>
<rect x="37" y="172" width="39" height="33" fill="#B07AA1"/>
<path d="M56.5 146L88.1099 173H24.8901L56.5 146Z" fill="#B07AA1"/>
<rect x="387" y="60" width="39" height="33" fill="#B07AA1"/>
<path d="M406.5 34L438.11 61H374.89L406.5 34Z" fill="#B07AA1"/>
<rect x="513" y="336" width="39" height="33" fill="#B07AA1"/>
<path d="M532.5 310L564.11 337H500.89L532.5 310Z" fill="#B07AA1"/>
<rect x="697.902" y="59.3996" width="39" height="33" fill="#B07AA1"/>
<path d="M717.402 33.3996L749.012 60.3996H685.792L717.402 33.3996Z" fill="#B07AA1"/>
<rect x="930.902" y="236.4" width="39" height="33" fill="#B07AA1"/>
<path d="M950.402 210.4L982.012 237.4H918.792L950.402 210.4Z" fill="#B07AA1"/>
<rect x="1244" y="98" width="39" height="33" fill="#B07AA1"/>
<path d="M1263.5 72L1295.11 99H1231.89L1263.5 72Z" fill="#B07AA1"/>
<rect x="1322" y="398" width="39" height="33" fill="#B07AA1"/>
<path d="M1341.5 372L1373.11 399H1309.89L1341.5 372Z" fill="#B07AA1"/>
<path d="M142.182 107.24C143.191 85.2737 156.838 80.6617 163.535 81.1015C163.09 98.585 171.703 102.323 176.064 102.007L176.32 146.807L152.689 146.934L153.363 107.62L142.182 107.24Z" fill="#CBDAED"/>
<path d="M207.719 107.055C206.709 85.0881 193.062 80.476 186.365 80.9158C186.81 98.3993 178.198 102.138 173.836 101.821L173.58 146.621L197.211 146.748L196.538 107.434L207.719 107.055Z" fill="#CBDAED"/>
<path d="M8.18161 398.24C9.19132 376.274 22.838 371.662 29.5351 372.101C29.0905 389.585 37.7026 393.323 42.0642 393.007L42.3202 437.807L18.6895 437.934L19.3626 398.62L8.18161 398.24Z" fill="#CBDAED"/>
<path d="M73.7188 398.055C72.7091 376.088 59.0624 371.476 52.3652 371.916C52.8099 389.399 44.1978 393.138 39.8362 392.821L39.5802 437.621L63.2109 437.748L62.5378 398.434L73.7188 398.055Z" fill="#CBDAED"/>
<path d="M816.182 115.24C817.191 93.2737 830.838 88.6617 837.535 89.1015C837.09 106.585 845.703 110.323 850.064 110.007L850.32 154.807L826.689 154.934L827.363 115.62L816.182 115.24Z" fill="#CBDAED"/>
<path d="M881.719 115.055C880.709 93.0881 867.062 88.476 860.365 88.9158C860.81 106.399 852.198 110.138 847.836 109.821L847.58 154.621L871.211 154.748L870.538 115.434L881.719 115.055Z" fill="#CBDAED"/>
<path d="M1336.18 280.24C1337.19 258.274 1350.84 253.662 1357.54 254.101C1357.09 271.585 1365.7 275.323 1370.06 275.007L1370.32 319.807L1346.69 319.934L1347.36 280.62L1336.18 280.24Z" fill="#CBDAED"/>
<path d="M1401.72 280.055C1400.71 258.088 1387.06 253.476 1380.37 253.916C1380.81 271.399 1372.2 275.138 1367.84 274.821L1367.58 319.621L1391.21 319.748L1390.54 280.434L1401.72 280.055Z" fill="#CBDAED"/>
<path d="M1094.18 49.2404C1095.19 27.2737 1108.84 22.6617 1115.54 23.1015C1115.09 40.585 1123.7 44.3234 1128.06 44.0071L1128.32 88.8067L1104.69 88.9338L1105.36 49.6196L1094.18 49.2404Z" fill="#CBDAED"/>
<path d="M1159.72 49.0548C1158.71 27.0881 1145.06 22.476 1138.37 22.9158C1138.81 40.3993 1130.2 44.1377 1125.84 43.8215L1125.58 88.6211L1149.21 88.7482L1148.54 49.4339L1159.72 49.0548Z" fill="#CBDAED"/>
<path d="M531.182 98.2404C532.191 76.2737 545.838 71.6617 552.535 72.1015C552.09 89.585 560.703 93.3234 565.064 93.0071L565.32 137.807L541.689 137.934L542.363 98.6196L531.182 98.2404Z" fill="#CBDAED"/>
<path d="M596.719 98.0548C595.709 76.0881 582.062 71.476 575.365 71.9158C575.81 89.3993 567.198 93.1377 562.836 92.8215L562.58 137.621L586.211 137.748L585.538 98.4339L596.719 98.0548Z" fill="#CBDAED"/>
</svg>
