<svg width="307" height="335" viewBox="0 0 307 335" fill="none" xmlns="http://www.w3.org/2000/svg">
<path d="M76.9128 193.047C50.7639 17.455 117.657 -5.31577 154.372 5.24778C246.224 -25.4396 245.289 117.661 233.339 193.047C192.092 266.21 103.062 368.638 76.9128 193.047Z" fill="#241401" stroke="#241401"/>
<path d="M226.991 82.6088C226.991 120.5 195.507 151.218 156.669 151.218C117.832 151.218 86.3478 120.5 86.3478 82.6088C86.3478 44.7172 117.832 14 156.669 14C195.507 14 226.991 44.7172 226.991 82.6088Z" fill="#E0C69F"/>
<path d="M136.577 122.291H176.761V180.144H136.577V122.291Z" fill="#E0C69F"/>
<path d="M12.3404 334C-1.06983 237.865 89.449 188.61 136.385 176H176.615C223.551 188.61 314.07 237.865 300.66 334H12.3404Z" fill="#E0C69F"/>
<path d="M226.374 201.659C177.584 239.405 113.704 217.387 87.8618 201.659C29.1493 178.684 4.82372 280.98 0 335H13.4377H307C300.453 274.826 275.163 163.914 226.374 201.659Z" fill="#254E70"/>
<path d="M87.4948 94.9811C116.646 96.1644 153.311 41.4867 168 14H142.154L111.646 25.8329C91.4495 48.3892 58.3435 93.7978 87.4948 94.9811Z" fill="#241401"/>
<path d="M228.594 76C188.217 73.0233 162.041 44.4961 154 30.6047V12H191.482C212.76 33.3333 249.97 76 228.594 76Z" fill="#241401"/>
</svg>
