<svg width="284" height="233" viewBox="0 0 284 233" fill="none" xmlns="http://www.w3.org/2000/svg">
<path d="M123.947 133.904C105.737 12.3876 152.323 -3.37078 177.892 3.93964C241.861 -17.2973 241.209 81.734 232.887 133.904C204.162 184.536 142.158 255.421 123.947 133.904Z" fill="#241401" stroke="#241401"/>
<path d="M228.197 57.5973C228.197 83.8846 206.524 105.195 179.79 105.195C153.056 105.195 131.384 83.8846 131.384 57.5973C131.384 31.31 153.056 10 179.79 10C206.524 10 228.197 31.31 228.197 57.5973Z" fill="#E0C69F"/>
<path d="M165.96 85.1269H193.621V125.262H165.96V85.1269Z" fill="#E0C69F"/>
<path d="M79.7554 232C70.4927 165.07 133.016 130.779 165.435 122H193.224C225.643 130.779 288.166 165.07 278.904 232H79.7554Z" fill="#E0C69F"/>
<path d="M227.89 139.378C194.04 165.88 149.718 150.42 131.789 139.378C91.0537 123.246 74.1763 195.071 70.8296 233H80.1528H283.83C279.287 190.75 261.741 112.875 227.89 139.378Z" fill="#254E70"/>
<path d="M131.826 65.9867C152.105 66.8194 177.611 28.3425 187.83 9H169.849L148.627 17.3268C134.577 33.1998 111.547 65.154 131.826 65.9867Z" fill="#241401"/>
<path d="M229.401 53C201.486 50.9535 183.389 31.3411 177.83 21.7907V9H203.743C218.454 23.6667 244.179 53 229.401 53Z" fill="#241401"/>
<path d="M42.7888 222.619C35.0144 219.341 17.3521 207.104 8.89884 184.374C4.91 173.648 6.01672 163.113 9.16744 154.126C22.4693 155.077 68.0268 153.885 107.936 141.632C113.225 149.551 116.92 159.479 115.728 170.86C113.201 194.979 99.1421 211.229 92.4286 216.339C92.4286 216.339 76.405 220.198 67.2684 221.381C57.7756 222.611 42.7888 222.619 42.7888 222.619Z" fill="#A3CFE2"/>
<path d="M8.86874 154.164C18.7181 149.372 66.1832 138.403 107.92 141.634C68.6427 156.024 22.1584 155.927 8.86874 154.164Z" fill="#96BCCD" stroke="#7B9CAA"/>
<path d="M22.9924 131.692C25.1485 135.51 85.2223 129.398 88.6454 123.387M22.9924 131.692C51.6709 123.23 79.2443 122.562 88.6454 123.387M22.9924 131.692C18.6234 135.968 12.5366 144.087 9.01022 154.146C5.85951 163.133 4.75279 173.668 8.74163 184.394C17.1949 207.124 34.8572 219.361 42.6316 222.639C42.6316 222.639 57.6183 222.631 67.1111 221.401C76.2478 220.218 92.2714 216.359 92.2714 216.359C98.9849 211.249 113.044 194.999 115.571 170.88C116.763 159.499 113.068 149.571 107.778 141.652C101.858 132.788 93.9414 126.44 88.6454 123.387" stroke="black"/>
<path d="M66.4169 180.966C71.1771 178.677 80.9626 180.296 85.2603 181.392C83.7933 185.463 79.0337 193.905 71.7318 195.101C70.9679 195.226 70.196 195.311 69.4226 195.361C68.181 197.421 65.0269 201.513 62.3433 201.403C58.9889 201.265 66.2328 197.867 64.6575 195.276C62.632 195.087 60.6929 194.728 58.967 194.306C57.1199 194.515 56.191 201.467 54.706 198.268C53.518 195.708 54.2522 193.712 54.7679 193.034C54.2007 192.825 53.7062 192.623 53.2972 192.441C52.4295 193.757 49.895 197.011 46.6992 199.492C43.5034 201.972 42.5829 208.631 42.5221 211.651C42.0706 209.783 41.1395 205.343 41.0272 202.523C40.9149 199.704 41.8342 197.03 42.3079 196.046C40.9632 196.371 37.6477 196.983 35.1434 196.829C32.6392 196.676 32.2872 199.734 32.4243 201.282C31.5376 200.231 30.1072 197.193 31.4786 193.445C32.8499 189.698 46.5382 189.014 53.2109 189.14C53.5975 188.857 54.0761 188.515 54.6271 188.129C53.7684 187.848 52.3693 186.64 53.6421 184.055C54.9149 181.469 54.1248 179.51 53.5707 178.853C54.5419 178.618 56.8754 178.196 58.4398 178.387C60.0042 178.579 63.1429 180.834 64.5168 181.937C65.1643 181.589 65.8012 181.262 66.4169 180.966Z" fill="#EA6D10"/>
<path d="M64.5168 181.937C65.1643 181.589 65.8012 181.262 66.4169 180.966C71.1771 178.677 80.9626 180.296 85.2603 181.392C83.7933 185.463 79.0337 193.905 71.7318 195.101C70.9679 195.226 70.196 195.311 69.4226 195.361M64.5168 181.937C63.1429 180.834 60.0042 178.579 58.4398 178.387C56.8754 178.196 54.5419 178.618 53.5707 178.853C54.1248 179.51 54.9149 181.469 53.6421 184.055C52.3693 186.64 53.7684 187.848 54.6271 188.129M64.5168 181.937C60.958 183.85 57.0777 186.413 54.6271 188.129M54.6271 188.129C54.0761 188.515 53.5975 188.857 53.2109 189.14C46.5382 189.014 32.8499 189.698 31.4786 193.445C30.1072 197.193 31.5376 200.231 32.4243 201.282C32.2872 199.734 32.6392 196.676 35.1434 196.829C37.6477 196.983 40.9632 196.371 42.3079 196.046C41.8342 197.03 40.9149 199.704 41.0272 202.523C41.1395 205.343 42.0706 209.783 42.5221 211.651C42.5829 208.631 43.5034 201.972 46.6992 199.492C49.895 197.011 52.4295 193.757 53.2972 192.441C53.7062 192.623 54.2007 192.825 54.7679 193.034M54.7679 193.034C54.2522 193.712 53.518 195.708 54.706 198.268C56.191 201.467 57.1199 194.515 58.967 194.306M54.7679 193.034C57.1216 193.903 60.7267 194.909 64.6575 195.276M69.4226 195.361C68.181 197.421 65.0269 201.513 62.3433 201.403C58.9889 201.265 66.2328 197.867 64.6575 195.276M69.4226 195.361C67.8215 195.465 66.214 195.42 64.6575 195.276" stroke="#9C4C10"/>
<path d="M79.6035 182.523C78.4213 183.52 76.8268 185.756 79.9064 186.719" stroke="#984101"/>
<circle cx="80.3695" cy="184.71" r="1.15289" transform="rotate(-13.5907 80.3695 184.71)" fill="black"/>
<path d="M98.4745 162.816C98.8188 165.538 96.7037 168.114 93.6547 168.5C90.6058 168.886 87.9157 166.917 87.5714 164.196C87.2271 161.474 89.3423 158.898 92.3912 158.512C95.4402 158.126 98.1303 160.095 98.4745 162.816Z" stroke="#F8F8F8"/>
<path d="M85.6461 171.644C85.8149 172.978 84.783 174.271 83.253 174.464C81.723 174.658 80.4019 173.663 80.2331 172.329C80.0643 170.994 81.0961 169.702 82.6262 169.509C84.1562 169.315 85.4773 170.31 85.6461 171.644Z" stroke="#F8F8F8"/>
<path d="M83.3657 157.29C83.58 158.984 82.2011 160.652 80.1444 160.912C78.0877 161.173 76.3369 159.901 76.1226 158.207C75.9083 156.512 77.2872 154.845 79.3439 154.584C81.4006 154.324 83.1514 155.596 83.3657 157.29Z" stroke="#F8F8F8"/>
<path d="M92.7363 150.527C92.8228 151.21 92.262 151.942 91.3423 152.059C90.4227 152.175 89.6973 151.606 89.6108 150.922C89.5244 150.239 90.0852 149.507 91.0048 149.391C91.9245 149.274 92.6499 149.844 92.7363 150.527Z" stroke="#F8F8F8"/>
<path d="M92.375 177.068C92.4615 177.751 91.9006 178.483 90.981 178.6C90.0614 178.716 89.336 178.147 89.2495 177.463C89.1631 176.78 89.7239 176.048 90.6435 175.932C91.5631 175.815 92.2886 176.385 92.375 177.068Z" stroke="#F8F8F8"/>
</svg>
