<svg width="295" height="322" viewBox="0 0 295 322" fill="none" xmlns="http://www.w3.org/2000/svg">
<path d="M218.387 69.0376C218.387 107.166 186.65 138.075 147.5 138.075C108.35 138.075 76.6126 107.166 76.6126 69.0376C76.6126 30.9092 108.35 0 147.5 0C186.65 0 218.387 30.9092 218.387 69.0376Z" fill="#FAE5CC"/>
<path d="M127.246 108.968H167.754V167.182H127.246V108.968Z" fill="#FAE5CC"/>
<path d="M2.34959 322C-11.1528 224.879 79.9882 175.119 127.246 162.38H167.754C215.012 175.119 306.153 224.879 292.65 322H2.34959Z" fill="#FAE5CC"/>
<path d="M119.902 38.9734C95.3685 37.666 85.4015 71.1131 83.4847 88C78.054 75.7434 73.1346 45.1835 96.9018 20.997C120.669 -3.18945 160.473 -1.60971 177.403 2.20347C188.265 2.20347 204.812 7.26954 184.112 27.5339C158.236 52.8643 150.57 40.6076 119.902 38.9734Z" fill="#C4C4C4"/>
<path d="M217.876 80.251C227.847 43.4937 200.022 8.82303 190.183 8.38738C172.185 -2.51921 158.753 14.5869 175.97 35.8336C218.539 30.2368 215.722 88.1926 217.876 80.251Z" fill="#C4C4C4"/>
<path d="M195.371 168C195.371 168 169.568 200.2 99.6292 168C1.85042 211.68 -5.84505 288.867 2.52957 322H292.47C300.845 288.867 293.15 211.68 195.371 168Z" fill="#00272B"/>
</svg>
