<svg width="242" height="225" viewBox="0 0 242 225" fill="none" xmlns="http://www.w3.org/2000/svg">
<path d="M149.959 51.3829C149.959 77.5518 128.187 98.7659 101.33 98.7659C74.4724 98.7659 52.7003 77.5518 52.7003 51.3829C52.7003 25.2141 74.4724 4 101.33 4C128.187 4 149.959 25.2141 149.959 51.3829Z" fill="#FAE5CC"/>
<path d="M87.4355 78.7885H115.224V118.743H87.4355V78.7885Z" fill="#FAE5CC"/>
<path d="M1.75542 225C-7.5073 158.342 55.016 124.191 87.4355 115.447H115.224C147.643 124.191 210.166 158.342 200.904 225H1.75542Z" fill="#FAE5CC"/>
<path d="M78.572 27.0157C61.9317 26.1094 55.1714 49.2943 53.8714 61C50.188 52.5039 46.8513 31.3203 62.9717 14.5547C79.092 -2.21087 106.089 -1.11582 117.573 1.52741C124.94 1.5274 136.163 5.03911 122.123 19.086C104.573 36.6446 99.3724 28.1485 78.572 27.0157Z" fill="#C4C4C4"/>
<path d="M149.4 60.4777C156.111 34.8443 137.383 10.6661 130.76 10.3622C118.646 2.75634 109.606 14.6856 121.194 29.5024C149.846 25.5993 147.95 66.0159 149.4 60.4777Z" fill="#C4C4C4"/>
<path d="M134.442 119C134.442 119 116.686 141.164 68.5584 119C1.27334 149.065 -4.02218 202.194 1.74068 225H201.259C207.022 202.194 201.727 149.065 134.442 119Z" fill="#00272B"/>
<path d="M168.732 131.903C179.647 120.534 202.353 125.879 215.245 131.903C227.294 138.096 248.562 157.713 237.237 186.631C225.912 215.55 193.674 215.955 178.97 212.542C168.859 207.486 147.953 194.544 145.223 183.219C142.493 171.894 150.321 166.788 154.576 165.65C161.57 165.313 174.192 161.808 168.732 150.483C161.907 136.327 165.699 135.063 168.732 131.903Z" fill="#E0C69F" stroke="#43270D" stroke-width="2"/>
<path d="M130.17 203.993L194.927 147.07C198.119 147.36 199.522 150.454 199.825 151.965L132.165 205.988C130.109 207.861 125.816 211.354 125.091 210.338C124.365 209.323 128.174 205.685 130.17 203.993Z" fill="#BB722D" stroke="#502C0B"/>
<path d="M192 142.773C192 145.922 188.664 148.851 184.026 148.851C179.388 148.851 176.052 145.922 176.052 142.773C176.052 139.624 179.388 136.695 184.026 136.695C188.664 136.695 192 139.624 192 142.773Z" fill="#FBFEF9" stroke="#43270D" stroke-width="2"/>
<path d="M223.627 122.353C219.375 123.659 219.778 127.25 220.511 128.882L222.894 131.24C223.688 131.663 226.01 131.493 228.943 127.431C231.875 123.368 230.409 119.451 229.309 118C229.187 118.907 227.88 121.047 223.627 122.353Z" fill="#43270D" stroke="#43270D"/>
<path d="M201.131 151.842C200.695 152.417 200.224 151.961 199.861 151.842C198.845 148.246 196.172 147.107 194.963 146.987L194.963 146.987C194.528 145.98 194.419 145.729 194.6 145.549C202.703 140.036 219.235 128.937 220.541 128.649C221.847 128.361 222.779 130.087 223.081 130.986C215.946 137.698 201.566 151.266 201.131 151.842Z" fill="#9A9898" stroke="#626262"/>
<path d="M222.726 144.79C218.975 144.638 217.336 143.073 216.985 142.31C216.22 141.896 214.287 141.318 212.68 142.31C211.073 143.302 210.735 147.112 210.767 148.893C210.416 150.324 211.168 153.892 216.985 156.716C222.802 159.54 225.979 155.539 226.84 153.186C227.031 150.451 226.476 144.943 222.726 144.79Z" fill="#920C0C"/>
<path d="M217.749 163.937C219.228 160.667 220.839 160.901 223.228 161.835C226.514 163.119 226.493 159.966 230.223 161.835C232.089 162.769 233.488 163.937 230.223 173.278C227.612 180.752 220.819 176.392 217.749 173.278C216.622 172.656 215.045 169.915 217.749 163.937Z" fill="#E15759"/>
<path d="M209.411 192.03C206.667 189.718 207.329 188.231 208.878 186.186C211.007 183.374 208.262 184.405 211.074 181.323C212.48 179.782 213.688 176.884 221.791 182.564C228.274 187.108 222.232 192.461 218.401 194.569C217.496 195.484 214.43 196.258 209.411 192.03Z" fill="#F5B755"/>
<path d="M189.869 193.012C191.144 189.658 192.766 189.791 195.209 190.576C198.567 191.656 198.493 190.811 202.332 192.445C204.251 193.263 207.385 193.446 204.703 202.971C202.557 210.591 193.701 205.255 190.445 202.336C189.282 201.784 187.538 199.146 189.869 193.012Z" fill="#6CC75F"/>
<path d="M168.196 188.041C170.816 185.625 172.263 186.46 174.19 188.237C176.84 190.679 177.134 189.896 179.991 193.044C181.419 194.618 184.246 196.165 177.675 203.441C172.418 209.262 166.498 200.609 164.731 196.578C163.89 195.573 163.405 192.46 168.196 188.041Z" fill="#404B88"/>
</svg>
