<svg width="401" height="232" viewBox="0 0 401 232" fill="none" xmlns="http://www.w3.org/2000/svg">
<path d="M329.113 42.4415C329.113 62.0153 312.82 77.883 292.722 77.883C272.623 77.883 256.331 62.0153 256.331 42.4415C256.331 22.8677 272.623 7 292.722 7C312.82 7 329.113 22.8677 329.113 42.4415Z" fill="#FAE5CC"/>
<path d="M282.324 62.9403H303.119V92.8257H282.324V62.9403Z" fill="#FAE5CC"/>
<path d="M218.207 172.304C211.275 122.445 258.063 96.9002 282.324 90.3602H303.119C327.38 96.9002 374.169 122.445 367.237 172.304H218.207Z" fill="#FAE5CC"/>
<path d="M278.553 27.0076C265.958 26.3364 260.841 43.507 259.857 52.1762C257.069 45.884 254.544 30.1956 266.745 17.7791C278.946 5.36265 299.38 6.17363 308.072 8.13119C313.647 8.13118 322.142 10.7319 311.516 21.1349C298.232 34.1387 294.296 27.8465 278.553 27.0076Z" fill="#C4C4C4"/>
<path d="M328.849 48.1982C333.967 29.3282 319.683 11.5295 314.632 11.3059C305.392 5.70679 298.497 14.4885 307.336 25.3958C329.189 22.5226 327.743 52.2751 328.849 48.1982Z" fill="#C4C4C4"/>
<path d="M317.297 93.2454C317.297 93.2454 304.05 109.776 268.146 93.2454C217.95 115.669 213.999 155.294 218.299 172.304H367.144C371.443 155.294 367.493 115.669 317.297 93.2454Z" fill="#00272B"/>
<path d="M65.4846 99.5901C52.0607 9.44745 86.4013 -2.2423 105.25 3.18066C152.403 -12.5732 151.923 60.8895 145.789 99.5901C124.614 137.15 78.9086 189.733 65.4846 99.5901Z" fill="#241401" stroke="#241401"/>
<path d="M142.53 42.8951C142.53 62.3473 126.368 78.1164 106.43 78.1164C86.4919 78.1164 70.3291 62.3473 70.3291 42.8951C70.3291 23.4428 86.4919 7.67371 106.43 7.67371C126.368 7.67371 142.53 23.4428 142.53 42.8951Z" fill="#E0C69F"/>
<path d="M96.1153 63.2666H116.744V92.9663H96.1153V63.2666Z" fill="#E0C69F"/>
<path d="M32.3346 171.951C25.4502 122.598 71.9195 97.3127 96.0146 90.839H116.668C140.763 97.3127 187.232 122.598 180.348 171.951H32.3346Z" fill="#E0C69F"/>
<path d="M142.212 104.012C117.166 123.389 84.3715 112.085 71.1052 104.012C40.9642 92.2167 28.4763 144.732 26 172.464H32.8984H183.603C180.242 141.573 167.259 84.6343 142.212 104.012Z" fill="#254E70"/>
<path d="M70.9167 49.2466C85.882 49.8541 104.705 21.7844 112.245 7.67371H98.9766L83.3153 13.7483C72.9469 25.328 55.9514 48.6391 70.9167 49.2466Z" fill="#241401"/>
<path d="M143.352 39.5025C122.624 37.9743 109.186 23.3295 105.059 16.1981V6.64709H124.301C135.224 17.5989 154.326 39.5025 143.352 39.5025Z" fill="#241401"/>
<ellipse cx="161.04" cy="72.5505" rx="9.32551" ry="10.7403" fill="#231E15"/>
<ellipse cx="167.187" cy="84.1078" rx="9.32551" ry="10.7403" fill="#231E15"/>
<ellipse cx="178.743" cy="88.3711" rx="9.32551" ry="10.7403" fill="#231E15"/>
<ellipse cx="217.183" cy="91.2869" rx="9.32551" ry="10.7403" fill="#231E15"/>
<ellipse cx="230.788" cy="88.3711" rx="9.32551" ry="10.7403" fill="#231E15"/>
<ellipse cx="232.421" cy="76.767" rx="9.32551" ry="10.7403" fill="#231E15"/>
<ellipse cx="235.835" cy="63.3761" rx="9.32551" ry="10.7403" fill="#231E15"/>
<path d="M231.293 68.2988C231.293 85.3331 217.148 99.1422 199.698 99.1422C182.248 99.1422 168.102 85.3331 168.102 68.2988C168.102 51.2645 182.248 37.4554 199.698 37.4554C217.148 37.4554 231.293 51.2645 231.293 68.2988Z" fill="#43270D"/>
<path d="M190.67 86.1381H208.725V112.146H190.67V86.1381Z" fill="#43270D"/>
<path d="M135.002 181.313C128.984 137.923 169.607 115.692 190.67 110.001H208.725C229.789 115.692 270.412 137.923 264.394 181.313H135.002Z" fill="#43270D"/>
<ellipse cx="175.099" cy="26.8512" rx="6.59523" ry="7.08567" fill="#231E15"/>
<ellipse cx="167.604" cy="37.3759" rx="9.29326" ry="9.78349" fill="#231E15"/>
<ellipse cx="159.659" cy="47.9747" rx="7.94423" ry="8.31596" fill="#231E15"/>
<ellipse cx="159.881" cy="63.139" rx="10.1685" ry="10.7618" fill="#231E15"/>
<ellipse cx="172.297" cy="53.8738" rx="9.39472" ry="9.96844" fill="#231E15"/>
<ellipse cx="179.444" cy="39.6586" rx="9.39472" ry="9.96844" fill="#231E15"/>
<ellipse cx="184.492" cy="46.7881" rx="9.39472" ry="9.96844" fill="#231E15"/>
<ellipse cx="186.291" cy="26.8513" rx="9.39472" ry="9.96844" fill="#231E15"/>
<ellipse cx="197.413" cy="39.6586" rx="11.8231" ry="9.96844" fill="#231E15"/>
<ellipse cx="201.629" cy="23.9684" rx="9.39472" ry="9.96844" fill="#231E15"/>
<ellipse cx="215.334" cy="26.8513" rx="9.39472" ry="9.96844" fill="#231E15"/>
<ellipse cx="212.725" cy="38.0062" rx="9.39472" ry="9.96844" fill="#231E15"/>
<ellipse cx="224.824" cy="46.3222" rx="9.39472" ry="9.96844" fill="#231E15"/>
<ellipse cx="236.208" cy="57.9432" rx="11.3835" ry="9.96844" fill="#231E15"/>
<ellipse cx="226.371" cy="33.9369" rx="9.39472" ry="9.96844" fill="#231E15"/>
<ellipse cx="235.768" cy="46.3222" rx="9.39472" ry="9.96844" fill="#231E15"/>
<ellipse cx="240.115" cy="81.2121" rx="6.97803" ry="8.05928" fill="#231E15"/>
<ellipse cx="243.185" cy="70.2141" rx="6.97803" ry="8.05928" fill="#231E15"/>
<path d="M210.734 139.047C203.105 117.148 174.177 117.871 160.666 120.97C130.626 137.911 129.076 171.07 132.056 185.532H221.463C221.065 179.162 218.363 160.947 210.734 139.047Z" fill="#C6E0FF"/>
<path d="M195.489 139.047C202.529 117.148 229.223 117.871 241.69 120.97C269.41 137.911 270.84 171.07 268.09 185.532H185.589C185.956 179.162 188.449 160.947 195.489 139.047Z" fill="#C6E0FF"/>
<path d="M42.66 159.049C42.6919 161.395 42.1029 163.58 40.8929 165.602C39.7251 167.58 37.9553 169.226 35.5836 170.538C33.2539 171.807 30.4688 172.528 27.2282 172.7L27.2987 177.884L23.2031 177.939L23.1317 172.692C18.6042 172.369 14.9383 171.075 12.1339 168.809C9.32889 166.5 7.8138 163.342 7.58861 159.334L19.2355 159.176C19.5263 161.732 20.7859 163.358 23.0142 164.053L22.8767 153.942C19.5374 153.134 16.8597 152.338 14.8435 151.555C12.87 150.771 11.1244 149.493 9.60689 147.721C8.08932 145.95 7.30936 143.507 7.26701 140.393C7.21421 136.51 8.60106 133.376 11.4275 130.991C14.2967 128.605 17.9904 127.232 22.5086 126.872L22.4381 121.689L26.5337 121.633L26.6042 126.816C31.0884 127.097 34.6471 128.35 37.2803 130.576C39.9135 132.801 41.4066 135.917 41.7598 139.924L30.0489 140.083C29.7616 137.782 28.6534 136.304 26.7243 135.648L26.8592 145.567C30.4135 146.5 33.1558 147.337 35.0861 148.079C37.0164 148.821 38.7403 150.078 40.2579 151.849C41.8175 153.577 42.6182 155.977 42.66 159.049ZM18.843 139.723C18.8575 140.79 19.1896 141.681 19.8394 142.398C20.5319 143.114 21.5005 143.741 22.7453 144.278L22.6243 135.383C21.4327 135.613 20.5005 136.095 19.8277 136.829C19.1544 137.521 18.8261 138.486 18.843 139.723ZM27.1124 164.189C28.3894 163.958 29.385 163.433 30.0993 162.612C30.8562 161.791 31.2265 160.783 31.2103 159.589C31.1952 158.48 30.8204 157.589 30.0858 156.916C29.3933 156.2 28.361 155.595 26.9889 155.102L27.1124 164.189Z" fill="#4D9951"/>
<path d="M126.66 199.049C126.692 201.395 126.103 203.58 124.893 205.602C123.725 207.58 121.955 209.226 119.584 210.538C117.254 211.807 114.469 212.528 111.228 212.7L111.299 217.884L107.203 217.939L107.132 212.692C102.604 212.369 98.9383 211.075 96.1339 208.809C93.3289 206.5 91.8138 203.342 91.5886 199.334L103.236 199.176C103.526 201.732 104.786 203.358 107.014 204.053L106.877 193.942C103.537 193.134 100.86 192.338 98.8435 191.555C96.87 190.771 95.1244 189.493 93.6069 187.721C92.0893 185.95 91.3094 183.507 91.267 180.393C91.2142 176.51 92.6011 173.376 95.4275 170.991C98.2967 168.605 101.99 167.232 106.509 166.872L106.438 161.689L110.534 161.633L110.604 166.816C115.088 167.097 118.647 168.35 121.28 170.576C123.913 172.801 125.407 175.917 125.76 179.924L114.049 180.083C113.762 177.782 112.653 176.304 110.724 175.648L110.859 185.567C114.414 186.5 117.156 187.337 119.086 188.079C121.016 188.821 122.74 190.078 124.258 191.849C125.817 193.577 126.618 195.977 126.66 199.049ZM102.843 179.723C102.857 180.79 103.19 181.681 103.839 182.398C104.532 183.114 105.501 183.741 106.745 184.278L106.624 175.383C105.433 175.613 104.5 176.095 103.828 176.829C103.154 177.521 102.826 178.486 102.843 179.723ZM111.112 204.189C112.389 203.958 113.385 203.433 114.099 202.612C114.856 201.791 115.227 200.783 115.21 199.589C115.195 198.48 114.82 197.589 114.086 196.916C113.393 196.2 112.361 195.595 110.989 195.102L111.112 204.189Z" fill="#4D9951"/>
<path d="M222.66 209.049C222.692 211.395 222.103 213.58 220.893 215.602C219.725 217.58 217.955 219.226 215.584 220.538C213.254 221.807 210.469 222.528 207.228 222.7L207.299 227.884L203.203 227.939L203.132 222.692C198.604 222.369 194.938 221.075 192.134 218.809C189.329 216.5 187.814 213.342 187.589 209.334L199.236 209.176C199.526 211.732 200.786 213.358 203.014 214.053L202.877 203.942C199.537 203.134 196.86 202.338 194.843 201.555C192.87 200.771 191.124 199.493 189.607 197.721C188.089 195.95 187.309 193.507 187.267 190.393C187.214 186.51 188.601 183.376 191.428 180.991C194.297 178.605 197.99 177.232 202.509 176.872L202.438 171.689L206.534 171.633L206.604 176.816C211.088 177.097 214.647 178.35 217.28 180.576C219.913 182.801 221.407 185.917 221.76 189.924L210.049 190.083C209.762 187.782 208.653 186.304 206.724 185.648L206.859 195.567C210.414 196.5 213.156 197.337 215.086 198.079C217.016 198.821 218.74 200.078 220.258 201.849C221.817 203.577 222.618 205.977 222.66 209.049ZM198.843 189.723C198.857 190.79 199.19 191.681 199.839 192.398C200.532 193.114 201.501 193.741 202.745 194.278L202.624 185.383C201.433 185.613 200.5 186.095 199.828 186.829C199.154 187.521 198.826 188.486 198.843 189.723ZM207.112 214.189C208.389 213.958 209.385 213.433 210.099 212.612C210.856 211.791 211.227 210.783 211.21 209.589C211.195 208.48 210.82 207.589 210.086 206.916C209.393 206.2 208.361 205.595 206.989 205.102L207.112 214.189Z" fill="#4D9951"/>
<path d="M318.66 200.049C318.692 202.395 318.103 204.58 316.893 206.602C315.725 208.58 313.955 210.226 311.584 211.538C309.254 212.807 306.469 213.528 303.228 213.7L303.299 218.884L299.203 218.939L299.132 213.692C294.604 213.369 290.938 212.075 288.134 209.809C285.329 207.5 283.814 204.342 283.589 200.334L295.236 200.176C295.526 202.732 296.786 204.358 299.014 205.053L298.877 194.942C295.537 194.134 292.86 193.338 290.843 192.555C288.87 191.771 287.124 190.493 285.607 188.721C284.089 186.95 283.309 184.507 283.267 181.393C283.214 177.51 284.601 174.376 287.428 171.991C290.297 169.605 293.99 168.232 298.509 167.872L298.438 162.689L302.534 162.633L302.604 167.816C307.088 168.097 310.647 169.35 313.28 171.576C315.913 173.801 317.407 176.917 317.76 180.924L306.049 181.083C305.762 178.782 304.653 177.304 302.724 176.648L302.859 186.567C306.414 187.5 309.156 188.337 311.086 189.079C313.016 189.821 314.74 191.078 316.258 192.849C317.817 194.577 318.618 196.977 318.66 200.049ZM294.843 180.723C294.857 181.79 295.19 182.681 295.839 183.398C296.532 184.114 297.501 184.741 298.745 185.278L298.624 176.383C297.433 176.613 296.5 177.095 295.828 177.829C295.154 178.521 294.826 179.486 294.843 180.723ZM303.112 205.189C304.389 204.958 305.385 204.433 306.099 203.612C306.856 202.791 307.227 201.783 307.21 200.589C307.195 199.48 306.82 198.589 306.086 197.916C305.393 197.2 304.361 196.595 302.989 196.102L303.112 205.189Z" fill="#4D9951"/>
<path d="M391.66 155.049C391.692 157.395 391.103 159.58 389.893 161.602C388.725 163.58 386.955 165.226 384.584 166.538C382.254 167.807 379.469 168.528 376.228 168.7L376.299 173.884L372.203 173.939L372.132 168.692C367.604 168.369 363.938 167.075 361.134 164.809C358.329 162.5 356.814 159.342 356.589 155.334L368.236 155.176C368.526 157.732 369.786 159.358 372.014 160.053L371.877 149.942C368.537 149.134 365.86 148.338 363.843 147.555C361.87 146.771 360.124 145.493 358.607 143.721C357.089 141.95 356.309 139.507 356.267 136.393C356.214 132.51 357.601 129.376 360.428 126.991C363.297 124.605 366.99 123.232 371.509 122.872L371.438 117.689L375.534 117.633L375.604 122.816C380.088 123.097 383.647 124.35 386.28 126.576C388.913 128.801 390.407 131.917 390.76 135.924L379.049 136.083C378.762 133.782 377.653 132.304 375.724 131.648L375.859 141.567C379.414 142.5 382.156 143.337 384.086 144.079C386.016 144.821 387.74 146.078 389.258 147.849C390.817 149.577 391.618 151.977 391.66 155.049ZM367.843 135.723C367.857 136.79 368.19 137.681 368.839 138.398C369.532 139.114 370.501 139.741 371.745 140.278L371.624 131.383C370.433 131.613 369.5 132.095 368.828 132.829C368.154 133.521 367.826 134.486 367.843 135.723ZM376.112 160.189C377.389 159.958 378.385 159.433 379.099 158.612C379.856 157.791 380.227 156.783 380.21 155.589C380.195 154.48 379.82 153.589 379.086 152.916C378.393 152.2 377.361 151.595 375.989 151.102L376.112 160.189Z" fill="#4D9951"/>
</svg>
