<svg width="1410" height="487" viewBox="0 0 1410 487" fill="none" xmlns="http://www.w3.org/2000/svg">
<path d="M1167.39 233.037C1167.39 271.166 1135.65 302.075 1096.5 302.075C1057.35 302.075 1025.61 271.166 1025.61 233.037C1025.61 194.909 1057.35 164 1096.5 164C1135.65 164 1167.39 194.909 1167.39 233.037Z" fill="#FAE5CC"/>
<path d="M1076.25 272.968H1116.75V331.182H1076.25V272.968Z" fill="#FAE5CC"/>
<path d="M951.35 486C937.847 388.879 1028.99 339.119 1076.25 326.38H1116.75C1164.01 339.119 1255.15 388.879 1241.65 486H951.35Z" fill="#FAE5CC"/>
<path d="M1063.9 201.973C1039.37 200.666 1029.4 234.113 1027.48 251C1022.05 238.743 1017.13 208.183 1040.9 183.997C1064.67 159.811 1104.47 161.39 1121.4 165.203C1132.26 165.203 1148.81 170.27 1128.11 190.534C1102.24 215.864 1094.57 203.608 1063.9 201.973Z" fill="#C4C4C4"/>
<path d="M1166.88 244.251C1176.85 207.494 1149.02 172.823 1139.18 172.387C1121.18 161.481 1107.75 178.587 1124.97 199.833C1167.54 194.237 1164.72 252.193 1166.88 244.251Z" fill="#C4C4C4"/>
<path d="M1144.37 336C1144.37 336 1118.57 367.364 1048.63 336C950.85 378.545 943.155 453.727 951.53 486H1241.47C1249.85 453.727 1242.15 378.545 1144.37 336Z" fill="#00272B"/>
<path d="M226.913 345.047C200.764 169.455 267.657 146.684 304.372 157.248C396.224 126.56 395.289 269.661 383.339 345.047C342.092 418.21 253.062 520.638 226.913 345.047Z" fill="#241401" stroke="#241401"/>
<path d="M376.991 234.609C376.991 272.5 345.507 303.217 306.669 303.217C267.832 303.217 236.348 272.5 236.348 234.609C236.348 196.717 267.832 166 306.669 166C345.507 166 376.991 196.717 376.991 234.609Z" fill="#E0C69F"/>
<path d="M286.577 274.291H326.761V332.144H286.577V274.291Z" fill="#E0C69F"/>
<path d="M162.34 486C148.93 389.865 239.449 340.61 286.385 328H326.615C373.551 340.61 464.07 389.865 450.66 486H162.34Z" fill="#E0C69F"/>
<path d="M376.374 353.659C327.584 391.405 263.704 369.387 237.862 353.659C179.149 330.684 154.824 432.98 150 487H163.438H457C450.453 426.826 425.163 315.914 376.374 353.659Z" fill="#254E70"/>
<path d="M237.495 246.981C266.646 248.164 303.311 193.487 318 166H292.154L261.646 177.833C241.449 200.389 208.344 245.798 237.495 246.981Z" fill="#241401"/>
<path d="M378.594 228C338.217 225.023 312.041 196.496 304 182.605V164H341.482C362.76 185.333 399.97 228 378.594 228Z" fill="#241401"/>
<ellipse cx="627.514" cy="264.052" rx="18.1654" ry="20.9213" fill="#231E15"/>
<ellipse cx="639.491" cy="286.565" rx="18.1654" ry="20.9213" fill="#231E15"/>
<ellipse cx="662.003" cy="294.87" rx="18.1654" ry="20.9213" fill="#231E15"/>
<ellipse cx="736.881" cy="300.55" rx="18.1654" ry="20.9213" fill="#231E15"/>
<ellipse cx="763.381" cy="294.87" rx="18.1654" ry="20.9213" fill="#231E15"/>
<ellipse cx="766.561" cy="272.266" rx="18.1654" ry="20.9213" fill="#231E15"/>
<ellipse cx="773.212" cy="246.181" rx="18.1654" ry="20.9213" fill="#231E15"/>
<path d="M764.366 255.77C764.366 288.952 736.811 315.851 702.82 315.851C668.829 315.851 641.274 288.952 641.274 255.77C641.274 222.589 668.829 195.69 702.82 195.69C736.811 195.69 764.366 222.589 764.366 255.77Z" fill="#43270D"/>
<path d="M685.235 290.52H720.404V341.182H685.235V290.52Z" fill="#43270D"/>
<path d="M576.797 475.914C565.074 391.393 644.204 348.089 685.235 337.002H720.404C761.435 348.089 840.566 391.393 828.843 475.914H576.797Z" fill="#43270D"/>
<ellipse cx="654.898" cy="175.033" rx="12.8471" ry="13.8024" fill="#231E15"/>
<ellipse cx="640.298" cy="195.535" rx="18.1026" ry="19.0576" fill="#231E15"/>
<ellipse cx="624.823" cy="216.18" rx="15.4748" ry="16.1989" fill="#231E15"/>
<ellipse cx="625.258" cy="245.719" rx="19.8075" ry="20.9633" fill="#231E15"/>
<ellipse cx="649.444" cy="227.671" rx="18.3003" ry="19.4178" fill="#231E15"/>
<ellipse cx="663.366" cy="199.981" rx="18.3003" ry="19.4178" fill="#231E15"/>
<ellipse cx="673.198" cy="213.869" rx="18.3003" ry="19.4178" fill="#231E15"/>
<ellipse cx="676.702" cy="175.033" rx="18.3003" ry="19.4178" fill="#231E15"/>
<ellipse cx="698.367" cy="199.981" rx="23.0306" ry="19.4178" fill="#231E15"/>
<ellipse cx="706.579" cy="169.418" rx="18.3003" ry="19.4178" fill="#231E15"/>
<ellipse cx="733.274" cy="175.033" rx="18.3003" ry="19.4178" fill="#231E15"/>
<ellipse cx="728.193" cy="196.762" rx="18.3003" ry="19.4178" fill="#231E15"/>
<ellipse cx="751.763" cy="212.961" rx="18.3003" ry="19.4178" fill="#231E15"/>
<ellipse cx="773.937" cy="235.598" rx="22.1742" ry="19.4178" fill="#231E15"/>
<ellipse cx="754.776" cy="188.836" rx="18.3003" ry="19.4178" fill="#231E15"/>
<ellipse cx="773.078" cy="212.961" rx="18.3003" ry="19.4178" fill="#231E15"/>
<ellipse cx="781.546" cy="280.925" rx="13.5927" ry="15.6989" fill="#231E15"/>
<ellipse cx="787.528" cy="259.501" rx="13.5927" ry="15.6989" fill="#231E15"/>
<path d="M724.316 393.584C709.455 350.925 653.105 352.334 626.788 358.37C568.271 391.37 565.252 455.961 571.058 484.132H745.215C744.441 471.724 739.178 436.242 724.316 393.584Z" fill="#64113F"/>
<path d="M694.619 393.584C708.333 350.925 760.33 352.334 784.614 358.37C838.611 391.37 841.397 455.961 836.04 484.132H675.334C676.049 471.724 680.905 436.242 694.619 393.584Z" fill="#64113F"/>
<path d="M141.66 320.049C141.692 322.395 141.103 324.58 139.893 326.602C138.725 328.58 136.955 330.226 134.584 331.538C132.254 332.807 129.469 333.528 126.228 333.7L126.299 338.884L122.203 338.939L122.132 333.692C117.604 333.369 113.938 332.075 111.134 329.809C108.329 327.5 106.814 324.342 106.589 320.334L118.236 320.176C118.526 322.732 119.786 324.358 122.014 325.053L121.877 314.942C118.537 314.134 115.86 313.338 113.843 312.555C111.87 311.771 110.124 310.493 108.607 308.721C107.089 306.95 106.309 304.507 106.267 301.393C106.214 297.51 107.601 294.376 110.428 291.991C113.297 289.605 116.99 288.232 121.509 287.872L121.438 282.689L125.534 282.633L125.604 287.816C130.088 288.097 133.647 289.35 136.28 291.576C138.913 293.801 140.407 296.917 140.76 300.924L129.049 301.083C128.762 298.782 127.653 297.304 125.724 296.648L125.859 306.567C129.414 307.5 132.156 308.337 134.086 309.079C136.016 309.821 137.74 311.078 139.258 312.849C140.817 314.577 141.618 316.977 141.66 320.049ZM117.843 300.723C117.857 301.79 118.19 302.681 118.839 303.398C119.532 304.114 120.501 304.741 121.745 305.278L121.624 296.383C120.433 296.613 119.5 297.095 118.828 297.829C118.154 298.521 117.826 299.486 117.843 300.723ZM126.112 325.189C127.389 324.958 128.385 324.433 129.099 323.612C129.856 322.791 130.227 321.783 130.21 320.589C130.195 319.48 129.82 318.589 129.086 317.916C128.393 317.2 127.361 316.595 125.989 316.102L126.112 325.189Z" fill="#4D9951"/>
<path d="M893.752 374.408C893.784 376.755 893.195 378.939 891.985 380.961C890.817 382.939 889.047 384.585 886.675 385.897C884.346 387.166 881.561 387.887 878.32 388.059L878.39 393.243L874.295 393.298L874.223 388.051C869.696 387.728 866.03 386.434 863.226 384.168C860.421 381.859 858.906 378.701 858.68 374.693L870.327 374.535C870.618 377.091 871.878 378.717 874.106 379.412L873.968 369.301C870.629 368.493 867.951 367.697 865.935 366.914C863.962 366.13 862.216 364.852 860.699 363.08C859.181 361.309 858.401 358.866 858.359 355.752C858.306 351.869 859.693 348.736 862.519 346.35C865.388 343.964 869.082 342.591 873.6 342.231L873.53 337.048L877.625 336.992L877.696 342.175C882.18 342.456 885.739 343.709 888.372 345.935C891.005 348.16 892.498 351.276 892.852 355.283L881.141 355.442C880.853 353.142 879.745 351.663 877.816 351.007L877.951 360.926C881.505 361.859 884.248 362.696 886.178 363.438C888.108 364.18 889.832 365.437 891.35 367.208C892.909 368.936 893.71 371.336 893.752 374.408ZM869.935 355.082C869.949 356.149 870.281 357.04 870.931 357.757C871.624 358.473 872.592 359.1 873.837 359.638L873.716 350.742C872.524 350.972 871.592 351.454 870.92 352.188C870.246 352.88 869.918 353.845 869.935 355.082ZM878.204 379.548C879.481 379.317 880.477 378.792 881.191 377.971C881.948 377.15 882.318 376.142 882.302 374.948C882.287 373.839 881.912 372.948 881.178 372.275C880.485 371.559 879.453 370.954 878.081 370.461L878.204 379.548Z" fill="#4D9951"/>
<path d="M1034.66 135.049C1034.69 137.395 1034.1 139.58 1032.89 141.602C1031.73 143.58 1029.96 145.226 1027.58 146.538C1025.25 147.807 1022.47 148.528 1019.23 148.7L1019.3 153.884L1015.2 153.939L1015.13 148.692C1010.6 148.369 1006.94 147.075 1004.13 144.809C1001.33 142.5 999.814 139.342 999.589 135.334L1011.24 135.176C1011.53 137.732 1012.79 139.358 1015.01 140.053L1014.88 129.942C1011.54 129.134 1008.86 128.338 1006.84 127.555C1004.87 126.771 1003.12 125.493 1001.61 123.721C1000.09 121.95 999.309 119.507 999.267 116.393C999.214 112.51 1000.6 109.376 1003.43 106.991C1006.3 104.605 1009.99 103.232 1014.51 102.872L1014.44 97.6886L1018.53 97.6329L1018.6 102.816C1023.09 103.097 1026.65 104.35 1029.28 106.576C1031.91 108.801 1033.41 111.917 1033.76 115.923L1022.05 116.083C1021.76 113.782 1020.65 112.304 1018.72 111.648L1018.86 121.567C1022.41 122.5 1025.16 123.337 1027.09 124.079C1029.02 124.821 1030.74 126.077 1032.26 127.849C1033.82 129.577 1034.62 131.977 1034.66 135.049ZM1010.84 115.723C1010.86 116.79 1011.19 117.681 1011.84 118.398C1012.53 119.114 1013.5 119.741 1014.75 120.278L1014.62 111.383C1013.43 111.613 1012.5 112.095 1011.83 112.829C1011.15 113.521 1010.83 114.486 1010.84 115.723ZM1019.11 140.189C1020.39 139.958 1021.39 139.433 1022.1 138.612C1022.86 137.791 1023.23 136.783 1023.21 135.589C1023.2 134.48 1022.82 133.589 1022.09 132.916C1021.39 132.2 1020.36 131.595 1018.99 131.102L1019.11 140.189Z" fill="#4D9951"/>
<path d="M1255.66 298.049C1255.69 300.395 1255.1 302.58 1253.89 304.602C1252.73 306.58 1250.96 308.226 1248.58 309.538C1246.25 310.807 1243.47 311.528 1240.23 311.7L1240.3 316.884L1236.2 316.939L1236.13 311.692C1231.6 311.369 1227.94 310.075 1225.13 307.809C1222.33 305.5 1220.81 302.342 1220.59 298.334L1232.24 298.176C1232.53 300.732 1233.79 302.358 1236.01 303.053L1235.88 292.942C1232.54 292.134 1229.86 291.338 1227.84 290.555C1225.87 289.771 1224.12 288.493 1222.61 286.721C1221.09 284.95 1220.31 282.507 1220.27 279.393C1220.21 275.51 1221.6 272.376 1224.43 269.991C1227.3 267.605 1230.99 266.232 1235.51 265.872L1235.44 260.689L1239.53 260.633L1239.6 265.816C1244.09 266.097 1247.65 267.35 1250.28 269.576C1252.91 271.801 1254.41 274.917 1254.76 278.924L1243.05 279.083C1242.76 276.782 1241.65 275.304 1239.72 274.648L1239.86 284.567C1243.41 285.5 1246.16 286.337 1248.09 287.079C1250.02 287.821 1251.74 289.078 1253.26 290.849C1254.82 292.577 1255.62 294.977 1255.66 298.049ZM1231.84 278.723C1231.86 279.79 1232.19 280.681 1232.84 281.398C1233.53 282.114 1234.5 282.741 1235.75 283.278L1235.62 274.383C1234.43 274.613 1233.5 275.095 1232.83 275.829C1232.15 276.521 1231.83 277.486 1231.84 278.723ZM1240.11 303.189C1241.39 302.958 1242.39 302.433 1243.1 301.612C1243.86 300.791 1244.23 299.783 1244.21 298.589C1244.2 297.48 1243.82 296.589 1243.09 295.916C1242.39 295.2 1241.36 294.595 1239.99 294.102L1240.11 303.189Z" fill="#4D9951"/>
<path d="M493.66 229.049C493.692 231.395 493.103 233.58 491.893 235.602C490.725 237.58 488.955 239.226 486.584 240.538C484.254 241.807 481.469 242.528 478.228 242.7L478.299 247.884L474.203 247.939L474.132 242.692C469.604 242.369 465.938 241.075 463.134 238.809C460.329 236.5 458.814 233.342 458.589 229.334L470.236 229.176C470.526 231.732 471.786 233.358 474.014 234.053L473.877 223.942C470.537 223.134 467.86 222.338 465.843 221.555C463.87 220.771 462.124 219.493 460.607 217.721C459.089 215.95 458.309 213.507 458.267 210.393C458.214 206.51 459.601 203.376 462.428 200.991C465.297 198.605 468.99 197.232 473.509 196.872L473.438 191.689L477.534 191.633L477.604 196.816C482.088 197.097 485.647 198.35 488.28 200.576C490.913 202.801 492.407 205.917 492.76 209.924L481.049 210.083C480.762 207.782 479.653 206.304 477.724 205.648L477.859 215.567C481.414 216.5 484.156 217.337 486.086 218.079C488.016 218.821 489.74 220.078 491.258 221.849C492.817 223.577 493.618 225.977 493.66 229.049ZM469.843 209.723C469.857 210.79 470.19 211.681 470.839 212.398C471.532 213.114 472.501 213.741 473.745 214.278L473.624 205.383C472.433 205.613 471.5 206.095 470.828 206.829C470.154 207.521 469.826 208.486 469.843 209.723ZM478.112 234.189C479.389 233.958 480.385 233.433 481.099 232.612C481.856 231.791 482.227 230.783 482.21 229.589C482.195 228.48 481.82 227.589 481.086 226.916C480.393 226.2 479.361 225.595 477.989 225.102L478.112 234.189Z" fill="#4D9951"/>
<path d="M288.66 57.049C288.692 59.3955 288.103 61.5797 286.893 63.6017C285.725 65.5804 283.955 67.2259 281.584 68.5383C279.254 69.8074 276.469 70.5281 273.228 70.7001L273.299 75.8837L269.203 75.9394L269.132 70.6918C264.604 70.3694 260.938 69.0751 258.134 66.809C255.329 64.5003 253.814 61.3419 253.589 57.334L265.236 57.1756C265.526 59.7319 266.786 61.3575 269.014 62.0526L268.877 51.9416C265.537 51.1336 262.86 50.3379 260.843 49.5546C258.87 48.7707 257.124 47.493 255.607 45.7214C254.089 43.9499 253.309 41.507 253.267 38.3926C253.214 34.5103 254.601 31.3765 257.428 28.9911C260.297 26.6052 263.99 25.2322 268.509 24.8721L268.438 19.6886L272.534 19.6329L272.604 24.8164C277.088 25.0968 280.647 26.3498 283.28 28.5755C285.913 30.8013 287.407 33.9173 287.76 37.9235L276.049 38.0828C275.762 35.7825 274.653 34.3041 272.724 33.6476L272.859 43.5666C276.414 44.4997 279.156 45.3372 281.086 46.079C283.016 46.8208 284.74 48.0775 286.258 49.849C287.817 51.5773 288.618 53.9773 288.66 57.049ZM264.843 37.7231C264.857 38.7897 265.19 39.6812 265.839 40.3978C266.532 41.1138 267.501 41.7407 268.745 42.2785L268.624 33.3833C267.433 33.6129 266.5 34.0949 265.828 34.8295C265.154 35.5213 264.826 36.4859 264.843 37.7231ZM273.112 62.1889C274.389 61.9582 275.385 61.4326 276.099 60.6122C276.856 59.7911 277.227 58.7833 277.21 57.5888C277.195 56.4795 276.82 55.5886 276.086 54.9158C275.393 54.1998 274.361 53.5952 272.989 53.1018L273.112 62.1889Z" fill="#4D9951"/>
<rect x="37" y="183" width="39" height="33" fill="#B07AA1"/>
<path d="M56.5 157L88.1099 184H24.8901L56.5 157Z" fill="#B07AA1"/>
<rect x="387" y="70.9999" width="39" height="33" fill="#B07AA1"/>
<path d="M406.5 44.9999L438.11 71.9999H374.89L406.5 44.9999Z" fill="#B07AA1"/>
<rect x="513" y="347" width="39" height="33" fill="#B07AA1"/>
<path d="M532.5 321L564.11 348H500.89L532.5 321Z" fill="#B07AA1"/>
<rect x="697.902" y="70.3996" width="39" height="33" fill="#B07AA1"/>
<path d="M717.402 44.3996L749.012 71.3996H685.792L717.402 44.3996Z" fill="#B07AA1"/>
<rect x="930.902" y="247.4" width="39" height="33" fill="#B07AA1"/>
<path d="M950.402 221.4L982.012 248.4H918.792L950.402 221.4Z" fill="#B07AA1"/>
<rect x="1244" y="109" width="39" height="33" fill="#B07AA1"/>
<path d="M1263.5 82.9999L1295.11 110H1231.89L1263.5 82.9999Z" fill="#B07AA1"/>
<rect x="1322" y="409" width="39" height="33" fill="#B07AA1"/>
<path d="M1341.5 383L1373.11 410H1309.89L1341.5 383Z" fill="#B07AA1"/>
<path d="M142.182 118.24C143.191 96.2737 156.838 91.6616 163.535 92.1014C163.09 109.585 171.703 113.323 176.064 113.007L176.32 157.807L152.689 157.934L153.363 118.62L142.182 118.24Z" fill="#C6E0FF"/>
<path d="M207.719 118.055C206.709 96.088 193.062 91.476 186.365 91.9158C186.81 109.399 178.198 113.138 173.836 112.821L173.58 157.621L197.211 157.748L196.538 118.434L207.719 118.055Z" fill="#C6E0FF"/>
<path d="M8.18161 409.24C9.19132 387.274 22.838 382.662 29.5351 383.101C29.0905 400.585 37.7026 404.323 42.0642 404.007L42.3202 448.807L18.6895 448.934L19.3626 409.62L8.18161 409.24Z" fill="#C6E0FF"/>
<path d="M73.7188 409.055C72.7091 387.088 59.0624 382.476 52.3652 382.916C52.8099 400.399 44.1978 404.138 39.8362 403.821L39.5802 448.621L63.2109 448.748L62.5378 409.434L73.7188 409.055Z" fill="#C6E0FF"/>
<path d="M816.182 126.24C817.191 104.274 830.838 99.6616 837.535 100.101C837.09 117.585 845.703 121.323 850.064 121.007L850.32 165.807L826.689 165.934L827.363 126.62L816.182 126.24Z" fill="#C6E0FF"/>
<path d="M881.719 126.055C880.709 104.088 867.062 99.476 860.365 99.9158C860.81 117.399 852.198 121.138 847.836 120.821L847.58 165.621L871.211 165.748L870.538 126.434L881.719 126.055Z" fill="#C6E0FF"/>
<path d="M1336.18 291.24C1337.19 269.274 1350.84 264.662 1357.54 265.101C1357.09 282.585 1365.7 286.323 1370.06 286.007L1370.32 330.807L1346.69 330.934L1347.36 291.62L1336.18 291.24Z" fill="#C6E0FF"/>
<path d="M1401.72 291.055C1400.71 269.088 1387.06 264.476 1380.37 264.916C1380.81 282.399 1372.2 286.138 1367.84 285.821L1367.58 330.621L1391.21 330.748L1390.54 291.434L1401.72 291.055Z" fill="#C6E0FF"/>
<path d="M1094.18 60.2403C1095.19 38.2736 1108.84 33.6616 1115.54 34.1014C1115.09 51.5849 1123.7 55.3233 1128.06 55.007L1128.32 99.8066L1104.69 99.9337L1105.36 60.6195L1094.18 60.2403Z" fill="#C6E0FF"/>
<path d="M1159.72 60.0547C1158.71 38.088 1145.06 33.4759 1138.37 33.9157C1138.81 51.3992 1130.2 55.1376 1125.84 54.8214L1125.58 99.621L1149.21 99.7481L1148.54 60.4338L1159.72 60.0547Z" fill="#C6E0FF"/>
<path d="M531.182 109.24C532.191 87.2737 545.838 82.6616 552.535 83.1014C552.09 100.585 560.703 104.323 565.064 104.007L565.32 148.807L541.689 148.934L542.363 109.62L531.182 109.24Z" fill="#C6E0FF"/>
<path d="M596.719 109.055C595.709 87.088 582.062 82.476 575.365 82.9158C575.81 100.399 567.198 104.138 562.836 103.821L562.58 148.621L586.211 148.748L585.538 109.434L596.719 109.055Z" fill="#C6E0FF"/>
</svg>
